<svg id="e1613708-c112-43a9-9369-430bbcb48884" data-name="Layer 1" xmlns="http://www.w3.org/2000/svg" viewBox="0 0 226.78 217.13"><defs><style>.\34 435dc34-bd06-4e4e-958a-bf7ac6cf58b8{fill:#030304;}.\30 329973a-aeee-4b4e-b4be-ca5523158c6c,.\30 801faa9-6ce0-41bb-8de3-30e5314b1590,.\30 c8c5ee4-88bd-48fe-96aa-a6065e6f7c93,.\31 fbece9c-3cac-4c47-9143-e41fb424dec3,.\33 3871f59-6c07-473e-aa51-35b780bcaf57,.\33 7dea457-ac31-406d-bf01-986e3ee7bde2,.\34 435dc34-bd06-4e4e-958a-bf7ac6cf58b8,.\35 add05c6-bf07-4a69-b778-503792fd24e5,.\35 d3b3d9e-625a-4ada-a785-d6021b5ac7f8,.\35 f362967-a11b-41e5-885d-07a2c86f9d42,.\36 2c36546-6bb4-41b2-ad4c-30271912ecb1,.\37 1d1d526-26e6-44dd-bfca-25f7184ab26c,.\37 3886749-ad49-42e3-a070-3d66bb0a2b64,.\37 7277df3-ca66-407d-8ca7-0146f75d4888,.\37 a50ced8-b9f2-4923-a9a0-327581dbd195,.\37 bb83be1-e758-4840-90e4-2c0ef28778c4,.\39 28ee0fe-561a-4e98-820c-0a5036275123,.\39 4987314-0a57-4920-b72c-551761a2c4c9,.adb9aacb-9fd1-41db-820d-7d6f83c5c0e4,.b19c10bb-406b-4ee4-a09f-deb062b1d21f,.b7a3bf3b-0d7e-4c4c-93c3-9e0cb29e8008,.c0d2d368-26bf-43da-9c22-93b1187aedf5,.d20b7b44-d5a7-481b-9905-4fafc3d071a3,.eabdbf29-011c-4382-a24e-45fe9c5dc74a{stroke:#000;stroke-miterlimit:10;stroke-width:0.5px;}.d20b7b44-d5a7-481b-9905-4fafc3d071a3{fill:#030404;}.\33 7dea457-ac31-406d-bf01-986e3ee7bde2{fill:#040507;}.\37 bb83be1-e758-4840-90e4-2c0ef28778c4{fill:#020304;}.\30 c8c5ee4-88bd-48fe-96aa-a6065e6f7c93{fill:#040506;}.b19c10bb-406b-4ee4-a09f-deb062b1d21f{fill:#060908;}.\33 3871f59-6c07-473e-aa51-35b780bcaf57{fill:#070c0a;}.adb9aacb-9fd1-41db-820d-7d6f83c5c0e4{fill:#070c0b;}.\35 f362967-a11b-41e5-885d-07a2c86f9d42{fill:#090c0b;}.\30 801faa9-6ce0-41bb-8de3-30e5314b1590{fill:#020303;}.\37 a50ced8-b9f2-4923-a9a0-327581dbd195{fill:#090b0a;}.\39 4987314-0a57-4920-b72c-551761a2c4c9{fill:#060e0e;}.\36 2c36546-6bb4-41b2-ad4c-30271912ecb1{fill:#080f0d;}.\39 28ee0fe-561a-4e98-820c-0a5036275123{fill:#030303;}.\37 1d1d526-26e6-44dd-bfca-25f7184ab26c{fill:#050707;}.\37 7277df3-ca66-407d-8ca7-0146f75d4888{fill:#030505;}.\35 d3b3d9e-625a-4ada-a785-d6021b5ac7f8{fill:#1f2322;}.\37 3886749-ad49-42e3-a070-3d66bb0a2b64{fill:#06120f;}.\31 fbece9c-3cac-4c47-9143-e41fb424dec3{fill:#030403;}.\35 add05c6-bf07-4a69-b778-503792fd24e5{fill:#141414;}.c0d2d368-26bf-43da-9c22-93b1187aedf5{fill:#2aa285;}.\34 f71fd57-9e1f-494a-94a0-7298986a6ce0,.eabdbf29-011c-4382-a24e-45fe9c5dc74a{fill:#fff;}.b7a3bf3b-0d7e-4c4c-93c3-9e0cb29e8008{fill:#288d8b;}.\30 329973a-aeee-4b4e-b4be-ca5523158c6c{fill:#262626;}</style></defs><title>CX_vector_all</title><path class="4435dc34-bd06-4e4e-958a-bf7ac6cf58b8" d="M353.32,395a18,18,0,0,1,5.83-1c4.76-.32,9.52-0.15,14.28-0.16a24.57,24.57,0,0,1,6.33.57,34.45,34.45,0,0,1,8.18,3.36,17.42,17.42,0,0,1,4.59,4.12c3.11,3.66,5.24,8,7.65,12.05q4.86,8.25,9.61,16.57a7.66,7.66,0,0,1,1.29,4.36,10.34,10.34,0,0,1-.84,2.59,40.24,40.24,0,0,1-2.2,5.73,9,9,0,0,1-5.91,5,5.68,5.68,0,0,1-4.84-1c-1.94-1.51-4-2.95-5.24-5.2-1.11-2-2.28-4-3.42-6a125.41,125.41,0,0,0-6.94-11.19,19.28,19.28,0,0,0-3.54-4,3.2,3.2,0,0,0-1.68-.75,4,4,0,0,1-1.61,0c-0.22-.45.13-0.49,0.41-0.53a4.42,4.42,0,0,1,3.93,1.17,20.45,20.45,0,0,1,2.54,2.91c1.07,1.53,2.18,3,3.14,4.64,0.13,0.19.24,0.39,0.38,0.58,1.5,2.37,2.92,4.79,4.28,7.24,1.08,1.95,2.28,3.82,3.29,5.8l0.21,0.27a6.65,6.65,0,0,0,2,2.12,10,10,0,0,1,1.63,1.49,6,6,0,0,0,8.13.33,11.83,11.83,0,0,0,3.26-4.65c0.72-1.89,1.38-3.81,2.12-5.7a4.7,4.7,0,0,0-.43-3.73,23.15,23.15,0,0,0-1.45-2.71c-1.44-2.35-2.78-4.77-4.2-7.13a2.17,2.17,0,0,0-.42-0.57c-0.57-1.23-1.25-2.39-1.92-3.57-2.38-4-4.7-8.08-7.11-12.09a11.1,11.1,0,0,0-1.25-1.72c-0.47-.52-0.76-1.19-1.28-1.67a17.83,17.83,0,0,0-8.06-5.85c-0.76-.29-1.49-0.67-2.28-0.9a20.33,20.33,0,0,0-2.47-.74l-0.24-.07a45.72,45.72,0,0,0-4.82-.36,5.15,5.15,0,0,0-1.23-.14c-2.61,0-5.21,0-7.82,0-3,0-5.93.3-8.9,0.5a7.81,7.81,0,0,0-1.84.43,0.72,0.72,0,0,1-.52,0C353.94,395,353.47,395.24,353.32,395Z" transform="translate(-184.58 -392.39)"/><path class="d20b7b44-d5a7-481b-9905-4fafc3d071a3" d="M218,426.14a9.06,9.06,0,0,1-1.53,3.27c-2.25,4-4.53,8-6.77,12A7.08,7.08,0,0,1,208,443.2a21.87,21.87,0,0,1-6.09,4.15,22.55,22.55,0,0,1-5.87,1.8,7.32,7.32,0,0,1-6.76-2.88,21.18,21.18,0,0,1-4.29-7.56,7.07,7.07,0,0,1,.32-4.3c0.07-.22.15-0.44,0.23-0.66s0.31,0,.41.12a1.36,1.36,0,0,1,0,1c-0.79,2.09-.25,4,0.64,5.94a21,21,0,0,0,3.76,5.52c2,2.12,4.48,2.49,7.19,1.77a21.28,21.28,0,0,0,7.41-3.39c0.21-.17.43-0.33,0.64-0.49,0.76-.65,1.58-1.21,2.32-1.89,1.46-1.33,2.14-3.16,3.13-4.79,0.54-.9,1-1.84,1.57-2.73,0.18-.29.32-0.61,0.47-0.91,1.23-2.2,2.42-4.42,3.71-6.58a5.88,5.88,0,0,0,.65-1.93c0.05-.26,0-0.63.48-0.54A1.76,1.76,0,0,1,218,426.14Z" transform="translate(-184.58 -392.39)"/><path class="37dea457-ac31-406d-bf01-986e3ee7bde2" d="M300.84,429a17.85,17.85,0,0,0-7.46-.41,52.91,52.91,0,0,0-6.32,1.74c-2.77.95-5.53,2-8.32,2.86a13.7,13.7,0,0,1-5.33.27c-3.89-.32-7.78-0.16-11.67-0.22a29,29,0,0,1-10.63-2c-1-.39-1.93-0.74-2.89-1.11a2.64,2.64,0,0,0,.7-0.39,3.62,3.62,0,0,1,.92.24c1.81,0.58,3.54,1.37,5.39,1.82a38.29,38.29,0,0,0,6.89.79c1.1,0.06,2.21,0,3.32,0,0.28,0,.56,0,0.84,0,2.89-.13,5.78.08,8.67,0.17a15.77,15.77,0,0,0,6.15-1.14,6.48,6.48,0,0,1,.74-0.26,5.6,5.6,0,0,0,.87-0.31c2.06-.64,4.05-1.47,6.14-2,2.53-.69,5.05-1.48,7.73-1.32,0.18,0,.36,0,0.54,0a26,26,0,0,1,4.65.82,0.43,0.43,0,0,1,.42.4A1.43,1.43,0,0,1,300.84,429Z" transform="translate(-184.58 -392.39)"/><path class="7bb83be1-e758-4840-90e4-2c0ef28778c4" d="M267.8,402.93c2,0.33,4.09.56,6.11,1,1.36,0.28,2.71.53,4.07,0.83a33.53,33.53,0,0,1,5.72,2c2,0.83,3.91,1.76,5.88,2.61a16.43,16.43,0,0,1,3.83,2.81,3.47,3.47,0,0,0,4.06.45,43.74,43.74,0,0,0,6-3.91,14,14,0,0,1,4.42-2.42,29.69,29.69,0,0,1,5.1-.81,12.87,12.87,0,0,1,2.48,0,1.47,1.47,0,0,1-1.11.52,38.29,38.29,0,0,1-4,.55,4,4,0,0,0-.92.21,2.93,2.93,0,0,1-.75.1,13.24,13.24,0,0,0-4.48,2.24,59.55,59.55,0,0,1-5.53,3.79,14.18,14.18,0,0,1-2.4,1,2.09,2.09,0,0,1-.47,0,3.84,3.84,0,0,1-3.12-1.27c-2.08-2.06-4.73-3.1-7.33-4.24-0.77-.34-1.53-0.71-2.32-1l-0.69-.27c-4.5-1.85-9.26-2.54-14-3.19a0.93,0.93,0,0,1-.7-0.28A0.43,0.43,0,0,1,267.8,402.93Z" transform="translate(-184.58 -392.39)"/><path class="0c8c5ee4-88bd-48fe-96aa-a6065e6f7c93" d="M185.92,434a0.34,0.34,0,0,0-.33-0.21c1.39-4.53,3.19-8.92,4.88-13.34,1.43-3.74,3-7.45,4.45-11.17,0.3-.16.38,0.05,0.46,0.27a4.75,4.75,0,0,1-.6,2.1q-2.19,5.44-4.33,10.91c-0.31.69-.53,1.41-0.81,2.11-1,2.66-2,5.3-2.91,8A1.6,1.6,0,0,1,185.92,434Z" transform="translate(-184.58 -392.39)"/><path class="b19c10bb-406b-4ee4-a09f-deb062b1d21f" d="M211,395.51a77.62,77.62,0,0,1,9.27-2.22,44.28,44.28,0,0,1,12.63-.39,18.15,18.15,0,0,1,4.25,1,0.38,0.38,0,0,1-.1.11c-0.19.13-.58-0.08-0.59,0.35a12.15,12.15,0,0,1-1.84-.39,38.4,38.4,0,0,0-9.88-.48,51.64,51.64,0,0,0-7.6,1.27,11.11,11.11,0,0,0-1.17.2c-1.58.26-3.05,1-4.67,1C211.12,395.9,210.87,395.84,211,395.51Z" transform="translate(-184.58 -392.39)"/><path class="33871f59-6c07-473e-aa51-35b780bcaf57" d="M318.09,404.83a39.25,39.25,0,0,0,7-1.56c2.8-.78,5.58-1.67,8.41-2.35,1.86-.45,3.74-0.71,5.62-1a0.93,0.93,0,0,1,.5.4,1.43,1.43,0,0,1-1,.41,4.72,4.72,0,0,0-1.11.15,62.21,62.21,0,0,0-9.52,2.32c-1.2.36-2.41,0.73-3.62,1a11.16,11.16,0,0,1-1.13.32,26.13,26.13,0,0,1-5.22,1c-0.57,0-1.15.09-1.72,0.08-0.31-.1-0.86.13-0.75-0.55a2.28,2.28,0,0,1,1,0A4.6,4.6,0,0,0,318.09,404.83Z" transform="translate(-184.58 -392.39)"/><path class="adb9aacb-9fd1-41db-820d-7d6f83c5c0e4" d="M211,395.51a0.34,0.34,0,0,0,.37.32,0.73,0.73,0,0,1-.68.55,34.38,34.38,0,0,0-7.67,4.13,29.08,29.08,0,0,0-4.29,4,12.09,12.09,0,0,0-1.14,1.3c-0.37.6-.83,1.14-1.16,1.76-0.26.47-.49,1-0.73,1.44a0.7,0.7,0,0,1-.48.54,0.34,0.34,0,0,0-.32-0.36c1-2.92,3.05-5.12,5.22-7.21A30.1,30.1,0,0,1,211,395.51Z" transform="translate(-184.58 -392.39)"/><path class="5f362967-a11b-41e5-885d-07a2c86f9d42" d="M332.54,432.22a37.08,37.08,0,0,1-4.91-.81c-2.39-.4-4.76-0.71-7.14.13-1,.36-2.11.54-3.17,0.8a3.79,3.79,0,0,1-1.49,0,0.87,0.87,0,0,1,.61-0.49c2.56-.68,5.05-1.65,7.76-1.66a5.11,5.11,0,0,1,1.33.15c0.27,0,.54,0,0.8,0a35.06,35.06,0,0,0,4.26.77,5.73,5.73,0,0,1,1.46.33,9.52,9.52,0,0,0,3.17.26,0.81,0.81,0,0,1,.27,0,0.39,0.39,0,0,1,.34.36,4.53,4.53,0,0,1-2.82.18A3,3,0,0,1,332.54,432.22Z" transform="translate(-184.58 -392.39)"/><path class="0801faa9-6ce0-41bb-8de3-30e5314b1590" d="M267.8,402.93l-0.16.43a0.38,0.38,0,0,1-.22.15c-4.24-.29-8.49-0.5-12.5-2.13a3.63,3.63,0,0,0-.81-0.33c-2-.83-4-1.67-6.06-2.33a1.68,1.68,0,0,1-.76-0.39c-0.1-.18-0.13-0.35.13-0.38a1.44,1.44,0,0,1,.67.05,50.21,50.21,0,0,1,6.52,2.53c1.52,0.65,3.13,1,4.66,1.55a3.94,3.94,0,0,1,.92.06,2,2,0,0,0,1.35.23,3.67,3.67,0,0,1,1.16.08l2.55,0.18a8.42,8.42,0,0,0,1.51.28A2.4,2.4,0,0,1,267.8,402.93Z" transform="translate(-184.58 -392.39)"/><path class="7a50ced8-b9f2-4923-a9a0-327581dbd195" d="M335.8,432l-0.31-.15a24.61,24.61,0,0,1,2.82-1.34c1.23-.68,2.48-1.35,3.74-2,0.46-.22.91-0.47,1.37-0.69a42.05,42.05,0,0,1,7.47-2.05c0.25,0.08.59,0.09,0.42,0.51a39.18,39.18,0,0,0-12.1,4.55,6.87,6.87,0,0,1-3.28,1.18S335.82,432.09,335.8,432Z" transform="translate(-184.58 -392.39)"/><path class="94987314-0a57-4920-b72c-551761a2c4c9" d="M316.51,432l-0.63.32h1.44a9.83,9.83,0,0,1-6.07-.34c-2.3-.74-4.64-1.37-7-2-1.15-.33-2.3-0.63-3.44-0.95a2.36,2.36,0,0,0,1.28-.17,2.3,2.3,0,0,1,1.59.16c1.91,0.52,3.81,1.13,5.71,1.68a1.81,1.81,0,0,1,.5.12c1.94,0.55,3.83,1.39,5.92,1A0.67,0.67,0,0,1,316.51,432Z" transform="translate(-184.58 -392.39)"/><path class="62c36546-6bb4-41b2-ad4c-30271912ecb1" d="M240,427.41c-3-1-6.07-2-9.11-2.91-1.49-.46-3-0.64-4.54-1.12a8,8,0,0,0-.93-0.37c0.2-.16.45-0.25,0.65-0.42,2.13,0.52,4.27,1,6.35,1.64,0.49,0.18,1,.31,1.49.45,2,0.57,4,1.29,5.92,1.93a0.81,0.81,0,0,1,.51.35C240.37,427.25,240.09,427.27,240,427.41Z" transform="translate(-184.58 -392.39)"/><path class="928ee0fe-561a-4e98-820c-0a5036275123" d="M339.64,400.26c-0.22,0-.49,0-0.51-0.33a46.41,46.41,0,0,0,6.13-1.17,45.24,45.24,0,0,0,5.05-2.34l3-1.42,0.67,0.08-0.17.24a1.14,1.14,0,0,1-.55.48c-2,.8-3.81,1.81-5.67,2.79a22.5,22.5,0,0,1-7.07,1.84A1,1,0,0,1,339.64,400.26Z" transform="translate(-184.58 -392.39)"/><path class="71d1d526-26e6-44dd-bfca-25f7184ab26c" d="M374.86,419.83c0.51,0.36,1.1.06,1.64,0.18a20.09,20.09,0,0,1-3.63.52c-1.78.27-3.56,0.5-5.32,0.9a2.57,2.57,0,0,1-.55,0,10.26,10.26,0,0,0-1.94.47c-1.24.32-2.47,0.65-3.71,1a1.34,1.34,0,0,0-.5.17,1.35,1.35,0,0,1-.62,0c-0.35,0-.25-0.24-0.12-0.44a22.83,22.83,0,0,1,4-1.21c2-.58,4-0.83,6-1.21,0.88-.17,1.77-0.23,2.64-0.4a6.08,6.08,0,0,1,1.33-.2A1,1,0,0,1,374.86,419.83Z" transform="translate(-184.58 -392.39)"/><path class="77277df3-ca66-407d-8ca7-0146f75d4888" d="M248.12,398c-0.2.18-.69-0.3-0.71,0.3a0.62,0.62,0,0,1-.73,0c-1.78-.58-3.46-1.42-5.2-2.08l-3-1.12a3.17,3.17,0,0,0-.79-0.21,1.26,1.26,0,0,1-1.07-.65c0-.1-0.41-0.23,0-0.29,0.17,0,.35,0,0.52,0,2.75,0.81,5.36,2,8,3.06C246.17,397.32,247.15,397.65,248.12,398Z" transform="translate(-184.58 -392.39)"/><path class="5d3b3d9e-625a-4ada-a785-d6021b5ac7f8" d="M360.15,422.69c0,0.64.53,0.1,0.7,0.34-1.93.54-3.71,1.47-5.61,2.1-1.3.43-2.63,0.8-3.94,1.19,0-.35-0.29-0.3-0.51-0.35a0.75,0.75,0,0,1,.72-0.49,44.07,44.07,0,0,0,5.12-1.7l1.35-.63a10.52,10.52,0,0,1,1-.33A1.53,1.53,0,0,1,360.15,422.69Z" transform="translate(-184.58 -392.39)"/><path class="77277df3-ca66-407d-8ca7-0146f75d4888" d="M240,427.41a0.34,0.34,0,0,1,.36-0.32,1.07,1.07,0,0,1,1.06,0c2.29,0.77,4.64,1.39,6.88,2.3a1.64,1.64,0,0,1,.41.23,0.46,0.46,0,0,1,.14.21c0,0.58-.43.16-0.61,0.29C245.51,429.09,242.72,428.31,240,427.41Z" transform="translate(-184.58 -392.39)"/><path class="73886749-ad49-42e3-a070-3d66bb0a2b64" d="M218,426.14c-0.1-.42.2-0.9-0.22-1.27a5.3,5.3,0,0,1,.55-2.94,3.62,3.62,0,0,1,.56-0.7,3.44,3.44,0,0,1,3.89.2,0.42,0.42,0,0,1-.2.45c-0.43-.11-0.86-0.2-1.28-0.32a1.92,1.92,0,0,0-2.64,1.63C218.45,424.19,218.22,425.16,218,426.14Z" transform="translate(-184.58 -392.39)"/><path class="1fbece9c-3cac-4c47-9143-e41fb424dec3" d="M222.58,421.89a0.37,0.37,0,0,1,.21-0.35,1.22,1.22,0,0,1,1.18.15,6.65,6.65,0,0,1,1.93,1c0.14,0.6-.37.16-0.5,0.32Z" transform="translate(-184.58 -392.39)"/><path class="5add05c6-bf07-4a69-b778-503792fd24e5" d="M315.56,405.13c0.1,0.53.55,0.23,0.82,0.34a1.75,1.75,0,0,1-2.09.29c0.25-.3.66,0,1.05-0.32H313Z" transform="translate(-184.58 -392.39)"/><path class="c0d2d368-26bf-43da-9c22-93b1187aedf5" d="M335.8,432a0.09,0.09,0,0,1,.11,0,0.3,0.3,0,0,1-.32.35,6,6,0,0,1-3-.18l2.17,0.12A1.42,1.42,0,0,0,335.8,432Z" transform="translate(-184.58 -392.39)"/><path class="7bb83be1-e758-4840-90e4-2c0ef28778c4" d="M262.73,402.45h-1.9c-0.25,0-.56.08-0.62-0.31Z" transform="translate(-184.58 -392.39)"/><path class="5d3b3d9e-625a-4ada-a785-d6021b5ac7f8" d="M365.05,421.91c0.55-.56,1.28-0.34,1.94-0.47A6.92,6.92,0,0,1,365.05,421.91Z" transform="translate(-184.58 -392.39)"/><path class="7bb83be1-e758-4840-90e4-2c0ef28778c4" d="M266.79,402.91a1.92,1.92,0,0,1-1.51-.28A3.69,3.69,0,0,1,266.79,402.91Z" transform="translate(-184.58 -392.39)"/><path class="5add05c6-bf07-4a69-b778-503792fd24e5" d="M318.09,404.83c-0.41.56-1,.23-1.5,0.29A5.16,5.16,0,0,1,318.09,404.83Z" transform="translate(-184.58 -392.39)"/>
<path class="eabdbf29-011c-4382-a24e-45fe9c5dc74a cpu4_cell_12" d="M360.15,422.69L359,423a1,1,0,0,1,.16-1,20.27,20.27,0,0,0,1.69-7.9,32.73,32.73,0,0,0-1.17-10.16c-0.76-2.7-1.73-5.32-3.86-7.31a8.19,8.19,0,0,1-1.57-1.31,3.12,3.12,0,0,1,1.68-.55,39.71,39.71,0,0,1,4.63-.35c4-.27,8-0.11,12-0.14a3.39,3.39,0,0,1,.54.08,2.76,2.76,0,0,1,1.49,1.22,15,15,0,0,1,2.76,5.79,24,24,0,0,1,.65,8.29,15.68,15.68,0,0,1-2.73,8,5.37,5.37,0,0,1-2.47,2.22,10,10,0,0,1-2.61.48c-2.24.47-4.51,0.77-6.72,1.42C362.4,422.15,361.28,422.47,360.15,422.69Z" transform="translate(-184.58 -392.39)"/>
<path class="eabdbf29-011c-4382-a24e-45fe9c5dc74a cpu4_cell_13" d="M374.86,419.83h-0.79a0.91,0.91,0,0,1,.42-0.79,15.27,15.27,0,0,0,3.51-7.79,23.75,23.75,0,0,0-.05-8.15,16.8,16.8,0,0,0-3-7.53,0.86,0.86,0,0,1-.33-1,0.77,0.77,0,0,1,.68-0.13c1.34,0.23,2.71.11,4,.38h0c0.81,0.39,1.7.49,2.53,0.8a27,27,0,0,1,6.28,2.85,13.82,13.82,0,0,1,4.14,4,10.44,10.44,0,0,1,1.52,4.91,27.45,27.45,0,0,1-2.91,14.5,14.71,14.71,0,0,1-5,6.17,1,1,0,0,1-1,.34c-1.15-1.65-2.27-3.33-3.46-5a14,14,0,0,0-3-3.14A4,4,0,0,0,374.86,419.83Z" transform="translate(-184.58 -392.39)"/>
<path class="eabdbf29-011c-4382-a24e-45fe9c5dc74a cpu4_cell_14" d="M392.72,441.92l-7.59-13c0.71-.74,1.62-1.22,2.36-1.94a20.66,20.66,0,0,0,4.66-7.6,28.93,28.93,0,0,0,1.71-7.11,19.69,19.69,0,0,0-.34-7.43,0.68,0.68,0,0,1,0-.74,42.74,42.74,0,0,1,3.8,5.94c1.54,2.52,3,5.09,4.47,7.65a1.11,1.11,0,0,1,.07.3,1.7,1.7,0,0,0,.36.86,13.11,13.11,0,0,1,1.37,7.63,20.56,20.56,0,0,1-3.11,9.25,14.42,14.42,0,0,1-5.46,5.44A22.09,22.09,0,0,1,392.72,441.92Z" transform="translate(-184.58 -392.39)"/>
<path class="eabdbf29-011c-4382-a24e-45fe9c5dc74a cpu4_cell_15" d="M403.77,421.44a1.45,1.45,0,0,1,.69.91c1.75,3.18,3.79,6.21,5.42,9.46a5.45,5.45,0,0,1,.18,4.89c-0.79,1.84-1.44,3.75-2.17,5.62a8.66,8.66,0,0,1-5.35,5.22,5.56,5.56,0,0,1-5.47-1.18c-1-.88-1.94-1.85-3-2.65a4,4,0,0,1-1.15-1.57,0.68,0.68,0,0,1,.41-0.21,11,11,0,0,0,5.88-4,19.77,19.77,0,0,0,3.95-7.83,17.92,17.92,0,0,0,.51-7.57A1.22,1.22,0,0,1,403.77,421.44Z" transform="translate(-184.58 -392.39)"/>
<path class="b7a3bf3b-0d7e-4c4c-93c3-9e0cb29e8008" d="M374.52,394.7l-0.29-.26a19.38,19.38,0,0,1,5.06.41c-1.26-.09-2.53-0.17-3.79-0.28A1.62,1.62,0,0,0,374.52,394.7Z" transform="translate(-184.58 -392.39)"/>
<path class="b7a3bf3b-0d7e-4c4c-93c3-9e0cb29e8008" d="M381.82,395.64a6.24,6.24,0,0,1-2.53-.8A9.24,9.24,0,0,1,381.82,395.64Z" transform="translate(-184.58 -392.39)"/>
<path class="eabdbf29-011c-4382-a24e-45fe9c5dc74a cpu4_cell_2" d="M218.47,421.91l-0.7,3c-0.23,2.47-1.91,4.27-2.94,6.38-0.48,1-1.08,1.9-1.63,2.85a1.86,1.86,0,0,1-1.61-.44,28.71,28.71,0,0,1-10-8.74,25.47,25.47,0,0,1-4.86-11.69A14.83,14.83,0,0,1,197,407a6,6,0,0,0,.5-1.23,26.17,26.17,0,0,1,8.06-7.15,31.48,31.48,0,0,1,5.51-2.58,1.26,1.26,0,0,0,.31-0.24l3.82-.93a1.8,1.8,0,0,1,.76-0.1c0.33,0.29,0,.48-0.13.65A14,14,0,0,0,213.1,402a24.79,24.79,0,0,0-.23,8.07,20.67,20.67,0,0,0,3,8.81,14.61,14.61,0,0,0,2,2.4A2,2,0,0,1,218.47,421.91Z" transform="translate(-184.58 -392.39)"/>
<path class="eabdbf29-011c-4382-a24e-45fe9c5dc74a cpu4_cell_1" d="M195.25,409.61a15.54,15.54,0,0,1,1.11-2.09,0.59,0.59,0,0,1,.22.76,17.76,17.76,0,0,0,.67,8.34,27.79,27.79,0,0,0,4.46,8.84,29.29,29.29,0,0,0,10.4,8.66,0.79,0.79,0,0,1,.66.68,5.32,5.32,0,0,1-.77,1.52c-0.86,1.58-1.77,3.14-2.64,4.71a6,6,0,0,1-1.58,1.73,12.16,12.16,0,0,1-2.1,1.62,3.32,3.32,0,0,1-2.6-.29,18.73,18.73,0,0,1-6.35-4,22.69,22.69,0,0,1-6-8.52,12,12,0,0,1-.51-8.54,2.15,2.15,0,0,0,.1-0.46,19.14,19.14,0,0,1,1.28-3.5c1.16-3,2.36-6,3.54-9A2.56,2.56,0,0,0,195.25,409.61Z" transform="translate(-184.58 -392.39)"/>
<path class="eabdbf29-011c-4382-a24e-45fe9c5dc74a cpu4_cell_0" d="M185.92,434a12.24,12.24,0,0,0,1.09-2.88c0.8-2.11,1.55-4.24,2.33-6.35a0.53,0.53,0,0,1,.17-0.15,0.4,0.4,0,0,1,.11.36c-0.43,4.51,1.25,8.35,3.87,11.85a22.07,22.07,0,0,0,8.46,7,7.71,7.71,0,0,0,2.7.82,0.59,0.59,0,0,1,.49.21,20.34,20.34,0,0,1-8.78,3.71,6.52,6.52,0,0,1-6.4-2.36,22.85,22.85,0,0,1-3.88-6.05,6.93,6.93,0,0,1-.32-5.33A2.09,2.09,0,0,0,185.92,434Z" transform="translate(-184.58 -392.39)"/>
<path class="eabdbf29-011c-4382-a24e-45fe9c5dc74a cpu4_cell_6" d="M268.27,403.6a30.48,30.48,0,0,1,4.74.64,44.57,44.57,0,0,1,5.82,1.25,14.72,14.72,0,0,1,3.68,1.4,1,1,0,0,1-.49.85,13.66,13.66,0,0,0-3.3,6.11,20.64,20.64,0,0,0-.71,7.74,15.12,15.12,0,0,0,3.62,9,0.83,0.83,0,0,1,.41.93,27.72,27.72,0,0,1-4,1.29,23.53,23.53,0,0,1-5.83.1q-2.72-.14-5.44-0.1c-0.18,0-.37,0-0.55,0a8.13,8.13,0,0,1-2.54-4.09,24.32,24.32,0,0,1-1.2-7,36,36,0,0,1,.52-8.23,21.11,21.11,0,0,1,2.38-6.74A7.88,7.88,0,0,1,268.27,403.6Z" transform="translate(-184.58 -392.39)"/>
<path class="eabdbf29-011c-4382-a24e-45fe9c5dc74a cpu4_cell_5" d="M254.84,401.15a30.15,30.15,0,0,0,5.53,1.53c1.36,0.17,2.74.3,4.12,0.41a21.74,21.74,0,0,1,3,.34,1.07,1.07,0,0,1-.46.79,16.07,16.07,0,0,0-3.61,6.84,31.22,31.22,0,0,0-1.15,7.7,29.76,29.76,0,0,0,.81,8.59,12.19,12.19,0,0,0,2.13,4.71,0.54,0.54,0,0,1,.19.69,48.51,48.51,0,0,1-8.38-.42,30.8,30.8,0,0,1-7.42-2.3,8.13,8.13,0,0,1-1.91-3.84,26.09,26.09,0,0,1,.17-12.81,29.43,29.43,0,0,1,3.2-8,17.91,17.91,0,0,1,3.34-4A0.93,0.93,0,0,1,254.84,401.15Z" transform="translate(-184.58 -392.39)"/>
<path class="eabdbf29-011c-4382-a24e-45fe9c5dc74a cpu4_cell_7" d="M283.15,407.09a62,62,0,0,1,7.21,3.24,18.68,18.68,0,0,1,2.82,2.27,3.59,3.59,0,0,0,2.74,1c0.49,2.66.78,5.34,1,8a24.35,24.35,0,0,1-.36,6.26,29.33,29.33,0,0,0-9.23,1.87q-2.11.69-4.19,1.44a1.06,1.06,0,0,1-1.34-.72,14.94,14.94,0,0,1-3.63-9.92,20.53,20.53,0,0,1,.81-6.93c0.77-2.37,1.73-4.64,3.77-6.25A1.59,1.59,0,0,1,283.15,407.09Z" transform="translate(-184.58 -392.39)"/>
<path class="eabdbf29-011c-4382-a24e-45fe9c5dc74a cpu4_cell_8" d="M309.39,430.86l-6.13-1.75c-0.38-.11-0.76-0.18-1.14-0.26a37.13,37.13,0,0,0-5.07-1,1.31,1.31,0,0,1-.15-1.2,24.46,24.46,0,0,0,0-6.67,54.7,54.7,0,0,0-.75-5.85,0.47,0.47,0,0,1,.11-0.44c3.51-1.25,6.21-3.81,9.28-5.77a10,10,0,0,1,3.06-1.28,6.87,6.87,0,0,1,2,2.86,23.49,23.49,0,0,1,2,9.41,24.25,24.25,0,0,1-.75,7.57,11,11,0,0,1-1.87,3.79A2.25,2.25,0,0,1,309.39,430.86Z" transform="translate(-184.58 -392.39)"/>
<path class="eabdbf29-011c-4382-a24e-45fe9c5dc74a cpu4_cell_9" d="M314.29,405.76a5.13,5.13,0,0,0,2.09-.29,23,23,0,0,0,6.1-1,2,2,0,0,1,.85-0.11,1.79,1.79,0,0,1,1.3.94,17,17,0,0,1,2.79,5.72,31.52,31.52,0,0,1,1.31,10,18.5,18.5,0,0,1-1.32,6.94,6,6,0,0,1-1.89,2.57,13.75,13.75,0,0,0-6.22.76c-0.92.26-1.86,0.48-2.79,0.72-2.22.5-4.27-.34-6.35-0.86a1,1,0,0,1-.3-0.23,1,1,0,0,1,.28-0.55,13.18,13.18,0,0,0,2.38-6.18,28.5,28.5,0,0,0-.54-11.42,14.19,14.19,0,0,0-2.32-5.31,0.86,0.86,0,0,1-.3-0.92,4,4,0,0,1,1.93-.43A28.56,28.56,0,0,1,314.29,405.76Z" transform="translate(-184.58 -392.39)"/>
<path class="eabdbf29-011c-4382-a24e-45fe9c5dc74a cpu4_cell_3" d="M225.9,422.7c-0.81-.33-1.63-0.66-2.43-1a1.47,1.47,0,0,0-.68-0.15,3.7,3.7,0,0,0-3.87-.1c-0.75.17-1.08-.43-1.47-0.86a16.69,16.69,0,0,1-3.58-6.6,24.26,24.26,0,0,1-1.08-7.31,19.47,19.47,0,0,1,2.25-9.81,9.21,9.21,0,0,1,2-2.32,41,41,0,0,1,13.53-1.34,27.39,27.39,0,0,1,5.12.71,1.84,1.84,0,0,0,1,.28l1.12,0.51a0.54,0.54,0,0,1-.38.54c-2.46,1.4-3.81,3.7-4.95,6.16a27.45,27.45,0,0,0-2.08,6.85,24.47,24.47,0,0,0,.67,12.6,10.16,10.16,0,0,0,1.27,2.53,1.71,1.71,0,0,1,.41.84c0,0.19-.06.31-0.28,0.2L226.71,423C226.44,422.88,226.17,422.78,225.9,422.7Z" transform="translate(-184.58 -392.39)"/>
<path class="eabdbf29-011c-4382-a24e-45fe9c5dc74a cpu4_cell_10" d="M342.12,428.65a37.94,37.94,0,0,1-4.87,2.57,6.93,6.93,0,0,1-1.77.66h-0.17a15.31,15.31,0,0,1-3.3-.17,16.35,16.35,0,0,0-2.68-.51,30.43,30.43,0,0,1-3-.61,0.53,0.53,0,0,1,.14-0.64,14.32,14.32,0,0,0,2.37-7.32,27,27,0,0,0,0-5.43,29.63,29.63,0,0,0-1.57-7.31,14.55,14.55,0,0,0-2.76-5,0.58,0.58,0,0,1-.19-0.77c1.47-.45,2.93-0.92,4.41-1.35s3.1-.91,4.66-1.3a20.54,20.54,0,0,1,4.25-.75,1.48,1.48,0,0,1,.93.54,18.8,18.8,0,0,1,4.87,7.92A27.23,27.23,0,0,1,345,419.5a17.26,17.26,0,0,1-2,7.89A3.19,3.19,0,0,1,342.12,428.65Z" transform="translate(-184.58 -392.39)"/>
<path class="eabdbf29-011c-4382-a24e-45fe9c5dc74a cpu4_cell_11" d="M353.34,395.62a4.83,4.83,0,0,1,3.13,2.2,18.44,18.44,0,0,1,2.93,6.42,30.94,30.94,0,0,1,1.19,8,20.65,20.65,0,0,1-2.5,11,31,31,0,0,1-6.58,2.37,5.18,5.18,0,0,0-.71.3,23.62,23.62,0,0,0-3.25.81,27.42,27.42,0,0,0-4.16,1.29c-0.53-.27-0.12-0.59,0-0.83a15.4,15.4,0,0,0,1.26-3.73,24.39,24.39,0,0,0,.46-6.74,32.8,32.8,0,0,0-1.57-7.63,20.77,20.77,0,0,0-4.62-7.82,0.61,0.61,0,0,1-.27-0.75l1-.32a21.74,21.74,0,0,0,9.29-2.54A24.68,24.68,0,0,1,353.34,395.62Z" transform="translate(-184.58 -392.39)"/>
<path class="0329973a-aeee-4b4e-b4be-ca5523158c6c" d="M332,431.71c1.11-.11,2.19.25,3.3,0.17A7,7,0,0,1,332,431.71Z" transform="translate(-184.58 -392.39)"/>
<path class="eabdbf29-011c-4382-a24e-45fe9c5dc74a cpu4_cell_4" d="M254.19,400.91a21.12,21.12,0,0,0-3.42,4.21,29.8,29.8,0,0,0-3.26,8.17,31.71,31.71,0,0,0-.89,8.26,16.52,16.52,0,0,0,2,7.8,1.38,1.38,0,0,1,.09.38c-2.62-1-5.28-1.81-7.95-2.62a1.62,1.62,0,0,0-.39,0,19.3,19.3,0,0,0-3-1.08c-1.16-.45-2.36-0.8-3.54-1.19a7.49,7.49,0,0,1-2.42-3.53,18.8,18.8,0,0,1-1.3-6.38,30,30,0,0,1,.51-7,26.11,26.11,0,0,1,3.89-9.75,9,9,0,0,1,4.09-3.23c2.64,0.86,5.15,2.06,7.75,3,0.36,0.14.73,0.25,1.1,0.38A53,53,0,0,1,254.19,400.91Z" transform="translate(-184.58 -392.39)"/>
<path d="M297,437.43a156.36,156.36,0,0,1,16.31.87,128.08,128.08,0,0,1,27.53,5.87,104.42,104.42,0,0,1,20.61,9.42,88.3,88.3,0,0,1,18.72,14.84,68.36,68.36,0,0,1,12,17.16,50.63,50.63,0,0,1,4.86,15.51,35,35,0,0,1-1.45,16.69,33.5,33.5,0,0,1-10.25,14.72,22.58,22.58,0,0,1-11.92,5,34,34,0,0,1-7.33.16,3.1,3.1,0,0,0-1,.18c-0.35.08-.82,0.56-1-0.23,0-.17-0.25-0.1-0.39-0.12a148.91,148.91,0,0,1-16.57-3.17c-6.68-1.55-13.34-3.19-20.07-4.48-6.05-1.16-12.14-2.06-18.28-2.62a152.12,152.12,0,0,0-20.19-.53,170.92,170.92,0,0,0-23.8,2.72C256.36,531,248,533.11,239.67,535a94.66,94.66,0,0,1-12.83,2.27c-4.59.41-9.1,0.18-13.36-1.82a21.37,21.37,0,0,1-8.22-7.1,34.26,34.26,0,0,1-5.95-13,38,38,0,0,1-.74-10.62c0.79-11.19,5.14-21,11.66-29.94a79.53,79.53,0,0,1,19.24-18.47,97.49,97.49,0,0,1,21.21-11,116.58,116.58,0,0,1,20.51-5.63A142.79,142.79,0,0,1,297,437.43Z" transform="translate(-184.58 -392.39)"/>

<path class="eabdbf29-011c-4382-a24e-45fe9c5dc74a cpu4_cell_12" d="M298,491.18c-0.24-11.64-.39-20.26-0.59-28.88-0.12-5.12-.34-10.24-0.71-15.36-0.19-2.66-.43-5.33-0.84-8-0.06-.39,0-0.51.44-0.51,3.84,0,7.68.11,11.51,0.38,1.88,0.13,3.75.3,5.62,0.49a0.69,0.69,0,0,1,.71.64,64.92,64.92,0,0,1,1.73,10.68,126.22,126.22,0,0,1,.44,14.32q-0.16,6.72-.83,13.41a181.51,181.51,0,0,1-4.51,26,95.93,95.93,0,0,1-5.32,16.49,21.18,21.18,0,0,1-2.47,4.3,1.24,1.24,0,0,1-1.2.54c-1-.08-2-0.12-3-0.12-0.46,0-.57-0.15-0.56-0.6,0.12-4.85.1-9.71,0-14.56C298.35,503,298.15,495.58,298,491.18Z" transform="translate(-184.58 -392.39)"/>
<path class="eabdbf29-011c-4382-a24e-45fe9c5dc74a cpu4_cell_4" d="M304.1,525.85c3.42-5.22,5.12-11,6.77-16.84a173,173,0,0,0,4.42-20.55q1.2-7.73,1.72-15.55c0.33-5,.52-9.94.37-14.92a104,104,0,0,0-1-12.2,55.68,55.68,0,0,0-1.12-5.74c-0.1-.4-0.1-0.53.38-0.47a141.76,141.76,0,0,1,16.61,3.13,0.74,0.74,0,0,1,.66.72,83,83,0,0,1,.77,16.52,132.64,132.64,0,0,1-1.59,15.65,178.53,178.53,0,0,1-4.85,21.55,117.05,117.05,0,0,1-7.62,20.23,37.48,37.48,0,0,1-4.47,7.25c-0.14.17-.3,0.33-0.43,0.51a3.17,3.17,0,0,1-3.46,1.29A59.15,59.15,0,0,0,304.1,525.85Z" transform="translate(-184.58 -392.39)"/>
<path class="eabdbf29-011c-4382-a24e-45fe9c5dc74a cpu4_cell_11" d="M292.43,525.57c-1.94,0-3.78,0-5.63.17-0.76.07-1.53,0.07-2.3,0.15a1.93,1.93,0,0,1-1.61-.55,24.93,24.93,0,0,1-4.44-5.82,93,93,0,0,1-8.31-19.63,173.62,173.62,0,0,1-5.9-25.25,128.25,128.25,0,0,1-1.64-20.71,73.42,73.42,0,0,1,.84-10.87,0.89,0.89,0,0,1,.78-0.88,135.67,135.67,0,0,1,15.85-2.78c0.82-.09.87-0.05,0.73,0.73A132.47,132.47,0,0,0,279,457.54c-0.19,4.56-.15,9.11.06,13.67a161.55,161.55,0,0,0,1.57,16.24,147.67,147.67,0,0,0,6.7,27.68A42.49,42.49,0,0,0,292.43,525.57Z" transform="translate(-184.58 -392.39)"/>
<path class="eabdbf29-011c-4382-a24e-45fe9c5dc74a cpu4_cell_3" d="M297,489.3c0.21,10.35.6,20.7,0.56,31.05,0,1.44-.06,2.87,0,4.31,0,0.68-.19,1-0.93.9a5.84,5.84,0,0,0-1.56,0,1.91,1.91,0,0,1-2-1,35.33,35.33,0,0,1-3.85-7.59,130,130,0,0,1-6.09-21.66,149.86,149.86,0,0,1-2.33-15.62,162.19,162.19,0,0,1-.54-25,141.06,141.06,0,0,1,1.68-14.89,0.65,0.65,0,0,1,.69-0.66c2.44-.22,4.88-0.42,7.33-0.51,1.34-.05,2.68,0,4-0.15a0.81,0.81,0,0,1,1,.9c0.23,2.46.54,4.92,0.72,7.38,0.42,5.68.65,11.37,0.78,17.06C296.64,472.32,296.79,480.81,297,489.3Z" transform="translate(-184.58 -392.39)"/>
<path class="eabdbf29-011c-4382-a24e-45fe9c5dc74a cpu4_cell_10" d="M247.37,447.8c-0.11,1.12-.23,2.22-0.31,3.33a62.62,62.62,0,0,0,.42,12.45,153.61,153.61,0,0,0,6.85,28.77,132.82,132.82,0,0,0,7.33,18.84,64.36,64.36,0,0,0,8.24,13.18A20.77,20.77,0,0,0,272.6,527a18.54,18.54,0,0,1-2.75.49c-1.92.35-3.85,0.62-5.77,1a1.61,1.61,0,0,1-1.19-.23,22.32,22.32,0,0,1-5.68-5,72.34,72.34,0,0,1-11.8-20.14,195.37,195.37,0,0,1-8.18-23.42,90.4,90.4,0,0,1-2.88-15.28,43.45,43.45,0,0,1,.12-9.71,0.87,0.87,0,0,1,.44-0.72,95,95,0,0,1,12.23-6.2A1.07,1.07,0,0,1,247.37,447.8Z" transform="translate(-184.58 -392.39)"/>
<path class="eabdbf29-011c-4382-a24e-45fe9c5dc74a cpu4_cell_5" d="M324.11,528.21a37.23,37.23,0,0,0,7.43-10.3c4.5-8.37,7.67-17.28,10.57-26.29,1.64-5.08,3.12-10.19,4.36-15.38a104,104,0,0,0,2.59-15.48,42.86,42.86,0,0,0-.58-12.57c1.09,0.48,2.09.88,3.05,1.33,3.2,1.5,6.34,3.13,9.39,4.94a1.24,1.24,0,0,1,.66,1c0.73,6.18-.05,12.25-1.29,18.28-2.06,10-5.53,19.63-9.34,29.12A93.59,93.59,0,0,1,340.9,522a30.51,30.51,0,0,1-6.57,7.12,3.07,3.07,0,0,1-2.8.62C329.1,529.12,326.64,528.71,324.11,528.21Z" transform="translate(-184.58 -392.39)"/>
<path class="eabdbf29-011c-4382-a24e-45fe9c5dc74a cpu4_cell_2" d="M282.1,526l-4.52.46c-0.91.09-1.82,0.17-2.73,0.31a1.77,1.77,0,0,1-1.43-.45,23.2,23.2,0,0,1-4.57-5,78.7,78.7,0,0,1-9-16.62,209.38,209.38,0,0,1-7.6-22.71,135,135,0,0,1-3.36-15.17,71,71,0,0,1-1-14.35,45.05,45.05,0,0,1,.47-4.73,1,1,0,0,1,.69-0.85,127.34,127.34,0,0,1,12.6-4.17c0.68-.18.72,0,0.63,0.6a75.63,75.63,0,0,0-.78,12.88,124.21,124.21,0,0,0,1,13.92q0.9,7.32,2.5,14.53a168.92,168.92,0,0,0,5.62,20.12A83.06,83.06,0,0,0,278,520.74,26,26,0,0,0,282.1,526Z" transform="translate(-184.58 -392.39)"/>
<path class="eabdbf29-011c-4382-a24e-45fe9c5dc74a cpu4_cell_13" d="M314.71,526.78c5.33-6.12,8.16-13.48,10.83-20.91a166.63,166.63,0,0,0,6.7-25.09A146.43,146.43,0,0,0,334.48,464a99.11,99.11,0,0,0,0-16.25c-0.12-1.3-.25-2.61-0.49-3.9-0.14-.76.1-0.69,0.65-0.53,3.81,1.06,7.55,2.35,11.25,3.75a2.34,2.34,0,0,1,1.73,2,43.34,43.34,0,0,1,.46,10c-0.89,13.13-4.72,25.57-8.9,37.93a135.79,135.79,0,0,1-8.15,19.56,51.66,51.66,0,0,1-5.64,8.8c-1.44,1.77-2.92,3-5.47,2.16A31.87,31.87,0,0,0,314.71,526.78Z" transform="translate(-184.58 -392.39)"/>
<path class="eabdbf29-011c-4382-a24e-45fe9c5dc74a cpu4_cell_14" d="M362.6,455.54a70.6,70.6,0,0,1,6.48,4.42c1.73,1.29,3.39,2.66,5,4.06a1.36,1.36,0,0,1,.56,1.19,79.22,79.22,0,0,1-1.72,13.68,133.66,133.66,0,0,1-12.6,34.67A64.09,64.09,0,0,1,349,529.5a17.55,17.55,0,0,1-3.62,2.83,1.51,1.51,0,0,1-1.13.25l-9.82-2.27c0.67-.54,1.3-1,1.88-1.53a36.67,36.67,0,0,0,5.65-6.58,95,95,0,0,0,9.82-18.68,202.25,202.25,0,0,0,7.86-22.65,92.5,92.5,0,0,0,3-16.36A40.67,40.67,0,0,0,362.6,455.54Z" transform="translate(-184.58 -392.39)"/>
<path class="eabdbf29-011c-4382-a24e-45fe9c5dc74a cpu4_cell_1" d="M233.38,455.05a51.43,51.43,0,0,0,.43,13.54c1.46,9.8,4.5,19.17,8,28.39a129.2,129.2,0,0,0,6.29,14.55c2.92,5.49,6.23,10.69,10.78,15,0.45,0.43.92,0.83,1.4,1.22s1,0.7,1.56,1.14l-3.17.68c-2.17.47-4.35,0.92-6.51,1.44a2.13,2.13,0,0,1-1.69-.28,26.33,26.33,0,0,1-6.4-5.61,72.85,72.85,0,0,1-11-17.15A149.39,149.39,0,0,1,225,486.51a95.54,95.54,0,0,1-3.6-18.61c-0.09-1.09-.1-2.18-0.16-3.26a0.88,0.88,0,0,1,.32-0.78,86,86,0,0,1,11.55-8.71A1.53,1.53,0,0,1,233.38,455.05Z" transform="translate(-184.58 -392.39)"/>
<path class="eabdbf29-011c-4382-a24e-45fe9c5dc74a cpu4_cell_6" d="M375.71,465.47a76.7,76.7,0,0,1,9.61,10.72,1.22,1.22,0,0,1,.17.85,58.12,58.12,0,0,1-2.07,13.54,106.51,106.51,0,0,1-13.84,31.19,45.84,45.84,0,0,1-9.9,11.1c-0.23.18-.49,0.34-0.71,0.53a5.74,5.74,0,0,1-5.89,1.22c-2.15-.7-4.41-1-6.78-1.56a27.06,27.06,0,0,0,3.31-2.67,58.4,58.4,0,0,0,9-11.68,126,126,0,0,0,11.26-24.79,115.36,115.36,0,0,0,5-20A78.59,78.59,0,0,0,375.71,465.47Z" transform="translate(-184.58 -392.39)"/>
<path class="eabdbf29-011c-4382-a24e-45fe9c5dc74a cpu4_cell_9" d="M220.21,465.26c0.08,1.14.16,2.27,0.25,3.39a86.09,86.09,0,0,0,2.69,14.95,136.24,136.24,0,0,0,11.74,30,61.09,61.09,0,0,0,10.58,14.45,24.52,24.52,0,0,0,4.26,3.42,5,5,0,0,1-1.57.47c-2.44.61-4.9,1.17-7.35,1.77a1.84,1.84,0,0,1-1.29-.16,26,26,0,0,1-7.1-5.32,62.57,62.57,0,0,1-11.29-16.19,112.85,112.85,0,0,1-8.58-21.83,60,60,0,0,1-2.12-13,2.34,2.34,0,0,1,.45-1.59,76,76,0,0,1,8.7-9.94A1.13,1.13,0,0,1,220.21,465.26Z" transform="translate(-184.58 -392.39)"/>
<path class="eabdbf29-011c-4382-a24e-45fe9c5dc74a cpu4_cell_15" d="M357.6,535.49a32.33,32.33,0,0,0,8.18-7.06,72.15,72.15,0,0,0,9.83-14.89,109.57,109.57,0,0,0,9.37-25,55.3,55.3,0,0,0,1.44-9.67c0-.26.06-0.52,0.12-1,0.85,1.35,1.61,2.51,2.32,3.69a68.1,68.1,0,0,1,4.46,9.11,7.65,7.65,0,0,1,.29,4.21A51.32,51.32,0,0,1,388,511c-3.72,7.18-8.07,13.92-14,19.55a38.59,38.59,0,0,1-6.75,5.2,5.35,5.35,0,0,1-3.81.69C361.59,536.13,359.67,535.92,357.6,535.49Z" transform="translate(-184.58 -392.39)"/>
<path class="eabdbf29-011c-4382-a24e-45fe9c5dc74a cpu4_cell_0" d="M238.46,534.21c-1.93.51-3.74,0.78-5.51,1.2A4.39,4.39,0,0,1,230,535a31.85,31.85,0,0,1-9.08-6.48A65.38,65.38,0,0,1,207.57,509,52.7,52.7,0,0,1,203,494a18.2,18.2,0,0,1-.23-3.18,2.06,2.06,0,0,1,.11-0.65,59.81,59.81,0,0,1,6.24-12,0.28,0.28,0,0,1,.31-0.21,52.81,52.81,0,0,0,.62,5.63,82.64,82.64,0,0,0,4.24,15.54,116.9,116.9,0,0,0,8.3,17.78,52.25,52.25,0,0,0,12.3,14.93A23.67,23.67,0,0,0,238.46,534.21Z" transform="translate(-184.58 -392.39)"/>
<path class="eabdbf29-011c-4382-a24e-45fe9c5dc74a cpu4_cell_8" d="M229.47,535.94c-4.35.6-8.52,0.79-12.66-.33a18.64,18.64,0,0,1-9.69-6.51,33.66,33.66,0,0,1-6-11.08,35.94,35.94,0,0,1-1.47-13.61,47.38,47.38,0,0,1,2-10.47c0.06-.21.13-0.41,0.23-0.7,1.41,10.36,5.73,19.41,11.51,27.85a47.82,47.82,0,0,0,12.81,13A38,38,0,0,0,229.47,535.94Z" transform="translate(-184.58 -392.39)"/>
<path class="eabdbf29-011c-4382-a24e-45fe9c5dc74a cpu4_cell_7" d="M394.65,494.92a29,29,0,0,1,1.07,4.35,39.34,39.34,0,0,1,.62,9.69,30.69,30.69,0,0,1-5.24,15.56,28.76,28.76,0,0,1-9,9,23.09,23.09,0,0,1-9.9,3.08,42.16,42.16,0,0,1-4.55.13l0.74-.45a43.52,43.52,0,0,0,11.36-10.47,79.12,79.12,0,0,0,13.54-24.89A36.36,36.36,0,0,0,394.65,494.92Z" transform="translate(-184.58 -392.39)"/>
<path d="M297.9,495c3,0.07,6.38.2,9.76,0.53a86.38,86.38,0,0,1,17.81,3.61,64.39,64.39,0,0,1,22.87,12.41,43.34,43.34,0,0,1,12.48,17,26.59,26.59,0,0,1,1.93,12.91A20.75,20.75,0,0,1,357.39,553a15.85,15.85,0,0,1-9.69,5.39,26.92,26.92,0,0,1-7.48,0c-6.14-.77-12.11-2.41-18.14-3.71-4.72-1-9.45-1.87-14.25-2.42a106.41,106.41,0,0,0-19.9-.37A152.77,152.77,0,0,0,264,556a96.68,96.68,0,0,1-11.62,2.26,17.69,17.69,0,0,1-9.53-1.13,15.4,15.4,0,0,1-6.57-6.24,21.57,21.57,0,0,1-3.21-13.1,34.2,34.2,0,0,1,6.19-17.12,50.85,50.85,0,0,1,15.81-14.89,70.79,70.79,0,0,1,24.55-9.2A100.53,100.53,0,0,1,297.9,495Z" transform="translate(-184.58 -392.39)"/><path class="4f71fd57-9e1f-494a-94a0-7298986a6ce0" d="M298.18,527.62c-0.13-5.69-.24-11.39-0.38-17.08a137.73,137.73,0,0,0-.92-13.92c-0.06-.49,0-0.59.49-0.58,3.49,0.05,7,.2,10.45.54a0.68,0.68,0,0,1,.65.72,44.24,44.24,0,0,1,1.05,7.11,104.73,104.73,0,0,1-5,39.13,31.65,31.65,0,0,1-2.52,5.84,2,2,0,0,1-2.22,1.24c-1.21-.17-1.21-0.06-1.2-1.24,0.05-5.18-.1-10.35-0.21-15.52,0-2.08,0-4.16,0-6.24h-0.14Z" transform="translate(-184.58 -392.39)"/><path class="4f71fd57-9e1f-494a-94a0-7298986a6ce0" d="M309.39,496.76c1.51,0.22,2.95.4,4.38,0.64q3.11,0.53,6.17,1.28a0.68,0.68,0,0,1,.63.65,47.06,47.06,0,0,1,.45,10.07,97.65,97.65,0,0,1-8.21,34.29,30.94,30.94,0,0,1-3.5,6c-0.77,1-1.56,1.73-3,1.38a26.88,26.88,0,0,0-3.92-.35c0.3-.52.58-1,0.83-1.45a42.69,42.69,0,0,0,3.09-8.09,108.94,108.94,0,0,0,3.81-18.64,102.65,102.65,0,0,0,.61-16.17A47.55,47.55,0,0,0,309.39,496.76Z" transform="translate(-184.58 -392.39)"/><path class="4f71fd57-9e1f-494a-94a0-7298986a6ce0" d="M294,550.62a45.17,45.17,0,0,0-4.74.14,1.51,1.51,0,0,1-1.18-.47,21.17,21.17,0,0,1-3.8-5.46,71.6,71.6,0,0,1-5.65-15,98.45,98.45,0,0,1-3.23-17.67,55.59,55.59,0,0,1,.24-13.11,0.68,0.68,0,0,1,.62-0.67,91.5,91.5,0,0,1,9.94-1.7c0.51-.06.44,0.16,0.38,0.5a85.39,85.39,0,0,0-1.07,19.31,95,95,0,0,0,5.15,27.14A30.68,30.68,0,0,0,294,550.62Z" transform="translate(-184.58 -392.39)"/><path class="4f71fd57-9e1f-494a-94a0-7298986a6ce0" d="M297.47,544c0,2,0,3.91,0,5.87,0,0.52-.19.61-0.68,0.68a2.27,2.27,0,0,1-2.49-1.39,42.78,42.78,0,0,1-3.66-9,95.17,95.17,0,0,1-3.59-17.33,100.76,100.76,0,0,1-.38-18.24,66.6,66.6,0,0,1,1-7.65,0.51,0.51,0,0,1,.53-0.54c2.27-.22,4.55-0.26,6.82-0.41,0.68,0,.81.23,0.88,0.82,0.6,5.12.81,10.26,0.92,15.41q0.23,10.25.45,20.5c0.08,3.75.19,7.5,0.28,11.25h-0.05Z" transform="translate(-184.58 -392.39)"/><path class="4f71fd57-9e1f-494a-94a0-7298986a6ce0" d="M264.83,502a35.15,35.15,0,0,0-.2,6.5,58,58,0,0,0,1.36,9.3,113.58,113.58,0,0,0,7.6,22.79,39.88,39.88,0,0,0,5.87,9.4c0.46,0.53,1,1,1.62,1.55-1.75.29-3.33,0.54-4.9,0.83a1.86,1.86,0,0,1-1.45-.38,22.83,22.83,0,0,1-5.72-6.07,57.44,57.44,0,0,1-6.07-11.77,101.05,101.05,0,0,1-5.18-15.83,35.38,35.38,0,0,1-1-11.64,1.31,1.31,0,0,1,.75-1.15A70.35,70.35,0,0,1,264.83,502Z" transform="translate(-184.58 -392.39)"/><path class="4f71fd57-9e1f-494a-94a0-7298986a6ce0" d="M331.12,502.32a66.84,66.84,0,0,1,7.68,3.77,0.75,0.75,0,0,1,.37.66,27.21,27.21,0,0,1-.14,7.4c-1.12,7.8-3.78,15.13-6.8,22.36A55.92,55.92,0,0,1,326,548a21.49,21.49,0,0,1-4.3,4.69,2.21,2.21,0,0,1-2,.48c-1.36-.35-2.76-0.55-4.15-0.81a0.25,0.25,0,0,1,0-.13c3.34-3.41,5.37-7.63,7.22-11.93a130.74,130.74,0,0,0,6.88-20.38,58.62,58.62,0,0,0,1.87-12.36A28.87,28.87,0,0,0,331.12,502.32Z" transform="translate(-184.58 -392.39)"/><path class="4f71fd57-9e1f-494a-94a0-7298986a6ce0" d="M287.16,550.9l-4.37.44a1.17,1.17,0,0,1-.86-0.38,19.9,19.9,0,0,1-4.22-5,62.28,62.28,0,0,1-6.16-13,115.38,115.38,0,0,1-5-17.82,45.45,45.45,0,0,1-.83-11.45c0.15-2.1.12-2.12,2.06-2.81s4.12-1.38,6.23-1.94c0.57-.15.67-0.05,0.59,0.53a52.91,52.91,0,0,0-.33,10.67,81.74,81.74,0,0,0,1.57,12.12c1.59,7.82,3.68,15.48,7.33,22.63A28.16,28.16,0,0,0,287.16,550.9Z" transform="translate(-184.58 -392.39)"/><path class="4f71fd57-9e1f-494a-94a0-7298986a6ce0" d="M321.63,499.12a72,72,0,0,1,8,2.59,0.71,0.71,0,0,1,.41.65,23.64,23.64,0,0,1,.39,6.35c-0.49,7.25-2.47,14.16-4.75,21a92.62,92.62,0,0,1-6.51,15.64,26.88,26.88,0,0,1-4.06,5.82,2.14,2.14,0,0,1-2.21.78c-1.17-.27-2.37-0.38-3.58-0.57,3.89-4.75,5.91-10.34,7.79-16a101.34,101.34,0,0,0,4.21-18,73.68,73.68,0,0,0,.7-14.5C321.95,501.63,321.77,500.43,321.63,499.12Z" transform="translate(-184.58 -392.39)"/><path class="4f71fd57-9e1f-494a-94a0-7298986a6ce0" d="M340.28,507a57.18,57.18,0,0,1,7.14,5.17,0.84,0.84,0,0,1,.24.8,49.28,49.28,0,0,1-1.72,11A80.68,80.68,0,0,1,337,545.47a34.49,34.49,0,0,1-6.57,8.19l-0.11.1a3.28,3.28,0,0,1-3.67.92,38.76,38.76,0,0,0-4.5-1,21.23,21.23,0,0,0,4.22-4.39,54.74,54.74,0,0,0,6.56-11.76A120.61,120.61,0,0,0,338.45,522a56.72,56.72,0,0,0,1.82-9.52A33.45,33.45,0,0,0,340.28,507Z" transform="translate(-184.58 -392.39)"/><path class="4f71fd57-9e1f-494a-94a0-7298986a6ce0" d="M255.73,506.72a27.79,27.79,0,0,0,.17,7.3,61.53,61.53,0,0,0,2.26,9.94,114.13,114.13,0,0,0,6.35,16.34,38.58,38.58,0,0,0,7.21,10.56,20.25,20.25,0,0,0,2.24,1.9,41.77,41.77,0,0,0-4.5,1,3.7,3.7,0,0,1-3.9-1,38.9,38.9,0,0,1-9.2-12.37,85.33,85.33,0,0,1-6.8-18.46,43.74,43.74,0,0,1-1.29-9.17,1,1,0,0,1,.3-0.93,57.36,57.36,0,0,1,6.83-5A2.21,2.21,0,0,1,255.73,506.72Z" transform="translate(-184.58 -392.39)"/><path class="4f71fd57-9e1f-494a-94a0-7298986a6ce0" d="M348.69,513.29a61.89,61.89,0,0,1,5,5.22,3.85,3.85,0,0,1,.94,3.24,54.22,54.22,0,0,1-5,17.14,51.85,51.85,0,0,1-6.7,11.41,21.76,21.76,0,0,1-6.61,6,2,2,0,0,1-1.42.19c-1.61-.36-3.22-0.7-5-1.07a22.65,22.65,0,0,0,4.11-3.94,54.86,54.86,0,0,0,7.76-12.77,82.69,82.69,0,0,0,6.17-19A44,44,0,0,0,348.69,513.29Z" transform="translate(-184.58 -392.39)"/><path class="4f71fd57-9e1f-494a-94a0-7298986a6ce0" d="M247.2,513.08a51.51,51.51,0,0,0,1.83,11,80.54,80.54,0,0,0,9,21.26,30.78,30.78,0,0,0,8.12,9.13c-1.44.33-2.8,0.54-4.09,1a3.63,3.63,0,0,1-3.51-.63,28.28,28.28,0,0,1-6.34-6.21,60.73,60.73,0,0,1-7.59-14.21,46.8,46.8,0,0,1-3.2-11.76,5.46,5.46,0,0,0-.08-0.74,3.92,3.92,0,0,1,1.16-3.82A61.62,61.62,0,0,1,247.2,513.08Z" transform="translate(-184.58 -392.39)"/><path class="4f71fd57-9e1f-494a-94a0-7298986a6ce0" d="M337.41,556.93a34.2,34.2,0,0,0,10.33-12,65.13,65.13,0,0,0,7.52-19.85c0.22-1.19.34-2.39,0.52-3.69a26.41,26.41,0,0,1,2.09,3.32,36.41,36.41,0,0,1,1.91,4,3.86,3.86,0,0,1,.07,2.12,32.38,32.38,0,0,1-4.15,11.2,46.18,46.18,0,0,1-8.06,10.87,37.49,37.49,0,0,1-3.63,3,6.44,6.44,0,0,1-5.92,1.18C337.91,557,337.71,557,337.41,556.93Z" transform="translate(-184.58 -392.39)"/><path class="4f71fd57-9e1f-494a-94a0-7298986a6ce0" d="M240.2,521.36a48.33,48.33,0,0,0,4.11,15.17c2.27,5.28,4.82,10.42,8.71,14.75a24.34,24.34,0,0,0,5.3,4.63,0.24,0.24,0,0,1,.15.3l-2.78.51a1.81,1.81,0,0,1-1-.22,21.56,21.56,0,0,1-7.29-5.14A42.91,42.91,0,0,1,236.79,533a19.45,19.45,0,0,1-.51-2.62,5,5,0,0,1,.38-2.82,47.74,47.74,0,0,1,3-5.55A1.48,1.48,0,0,1,240.2,521.36Z" transform="translate(-184.58 -392.39)"/><path class="4f71fd57-9e1f-494a-94a0-7298986a6ce0" d="M253.23,557.13c-4.1.52-8.14,0.58-11.73-1.95a17.76,17.76,0,0,1-5.89-7.85c-2.13-4.94-1.9-11-.37-15.73C238.3,542.07,243.43,551.21,253.23,557.13Z" transform="translate(-184.58 -392.39)"/><path class="4f71fd57-9e1f-494a-94a0-7298986a6ce0" d="M360.78,531.84a18,18,0,0,1,.73,3,19.74,19.74,0,0,1-1.45,12.25c-1.94,4-4.63,7.31-8.81,9.17a17.26,17.26,0,0,1-8,1.27,34.87,34.87,0,0,0,11.06-11.27A42.31,42.31,0,0,0,360.78,531.84Z" transform="translate(-184.58 -392.39)"/><path d="M257.83,583.48a32,32,0,0,1,2.22-11.28c1.91-4.73,4.72-8.78,9.23-11.42a14.88,14.88,0,0,1,17.16,1.5c4.69,3.91,7.26,9,8.52,14.86a32.72,32.72,0,0,1-.58,16.13,2.25,2.25,0,0,0,0,1.36A10.68,10.68,0,0,1,292.14,605c-2.1,2.56-4.8,4.1-8.23,3.67a8.62,8.62,0,0,0-3.36.29c-5.42,1.4-10.17-.05-14.26-3.73s-6.53-8.72-7.73-14.2A32.66,32.66,0,0,1,257.83,583.48Z" transform="translate(-184.58 -392.39)"/><path d="M338.11,584.14a31.06,31.06,0,0,1-3.58,14.81,20.2,20.2,0,0,1-9,9.07,14.25,14.25,0,0,1-11.31.61,2,2,0,0,0-1.28-.08,7.7,7.7,0,0,1-4.88-.35,11.41,11.41,0,0,1-6.81-12.66,7.61,7.61,0,0,0-.08-3.58c-1.86-8.31-1.09-16.3,3.24-23.76a19.83,19.83,0,0,1,7.16-7.36c5.81-3.39,12.57-2.67,17.81,1.91a25.31,25.31,0,0,1,7.63,13A34.06,34.06,0,0,1,338.11,584.14Z" transform="translate(-184.58 -392.39)"/><path class="4f71fd57-9e1f-494a-94a0-7298986a6ce0" d="M293.47,592.62a7.31,7.31,0,0,0-9.21-2.09,11.57,11.57,0,0,0-6.38,12.34,7.54,7.54,0,0,0,3.17,4.86,9.71,9.71,0,0,1-3,.67,14.19,14.19,0,0,1-11.12-4c-4.43-4.05-6.64-9.25-7.65-15.05,0-.19-0.06-0.39-0.1-0.59a7.52,7.52,0,0,1,.52-4.82c2.79-5.9,6.6-10.9,12.27-14.31a45.31,45.31,0,0,1,12.22-4.81c0.74-.19,1.48-0.37,2.21-0.59a0.89,0.89,0,0,1,1,.29,24.91,24.91,0,0,1,6.1,11.13,32.17,32.17,0,0,1,.1,16.36C293.61,592.23,293.55,592.38,293.47,592.62Z" transform="translate(-184.58 -392.39)"/><path class="4f71fd57-9e1f-494a-94a0-7298986a6ce0" d="M284.91,607.78a6.08,6.08,0,0,1-6.12-5.71,10.27,10.27,0,0,1,5.11-10.16,6.39,6.39,0,0,1,6.7-.43,6.16,6.16,0,0,1,3.13,4.46,10.37,10.37,0,0,1-7.43,11.63C285.85,607.68,285.38,607.72,284.91,607.78Z" transform="translate(-184.58 -392.39)"/><path class="4f71fd57-9e1f-494a-94a0-7298986a6ce0" d="M286.05,563.31c-2.71.73-5.3,1.41-7.84,2.3a31.88,31.88,0,0,0-18.76,16.62c-0.15.3-.31,0.6-0.55,1.07A30.31,30.31,0,0,1,261,572.73a22.47,22.47,0,0,1,7-9.85,13.87,13.87,0,0,1,17.38-.13C285.56,562.9,285.75,563.06,286.05,563.31Z" transform="translate(-184.58 -392.39)"/><path class="4f71fd57-9e1f-494a-94a0-7298986a6ce0" d="M314.92,607.77c4.61-3.43,4-9.91.85-13.94a10,10,0,0,0-6.53-4,6.8,6.8,0,0,0-6.48,2.46l-0.19.23-0.12.05a22.2,22.2,0,0,1-.84-4,31.08,31.08,0,0,1,2.89-18.33,21.63,21.63,0,0,1,4.08-5.71,0.62,0.62,0,0,1,.68-0.27,53.6,53.6,0,0,1,14.22,5.18,29.75,29.75,0,0,1,11.22,11.68c0.46,0.82.82,1.69,1.3,2.5a7.67,7.67,0,0,1,.73,5.36A28.3,28.3,0,0,1,333,599.69c-2.58,4.13-6,7.39-11,8.48A13.74,13.74,0,0,1,314.92,607.77Z" transform="translate(-184.58 -392.39)"/><path class="4f71fd57-9e1f-494a-94a0-7298986a6ce0" d="M302.06,597.11a6.3,6.3,0,0,1,3.64-5.81,6.09,6.09,0,0,1,4.49-.24A10.42,10.42,0,0,1,317,602.82a6,6,0,0,1-8.32,4.49C304.88,605.94,302.08,601.86,302.06,597.11Z" transform="translate(-184.58 -392.39)"/><path class="4f71fd57-9e1f-494a-94a0-7298986a6ce0" d="M309.94,563.31a13.76,13.76,0,0,1,15.8-1.86,18.66,18.66,0,0,1,6.8,6.5,29.81,29.81,0,0,1,4.52,15.32c-0.68-1.25-1.26-2.35-1.88-3.44-4.54-8-11.57-12.61-20.18-15.12C313.35,564.23,311.69,563.79,309.94,563.31Z" transform="translate(-184.58 -392.39)"/></svg>