<svg id="df3406bd-8cd6-41d5-9b19-e7d09d7672ca" data-name="Layer 1" xmlns="http://www.w3.org/2000/svg" viewBox="0 0 233.44 218.68"><defs><style>.\34 0cae442-98da-49a1-936a-fb4eb1fe6cb6{fill:#030304;}.\30 11e9c74-7102-4ae6-82d6-323c284c7b95,.\31 06648f0-07b8-408a-875b-78ab70f96fab,.\31 1f35835-4b92-4d11-9d90-bdaf6eb87c3f,.\31 a17a273-1ec0-42bd-92e7-cb8da1465d5e,.\33 bf490e7-b0c6-4bb0-9d69-24fa50acb671,.\34 0cae442-98da-49a1-936a-fb4eb1fe6cb6,.\35 d123168-c9f6-4e42-95bc-535021d56f2f,.\36 aa9e689-475e-4b14-8eb1-e4ece68f94bc,.\36 c9bdf59-a640-45aa-b2d7-fb5bac6f8614,.\37 072d1ee-3f42-4e33-87d5-fada98354a50,.\37 ad4b5be-2109-4a2a-a429-ef3c30a477df,.\37 dd838f2-6482-4a1c-93b4-e1b5a3581591,.\38 15a80a3-cb8f-424a-aaa0-861f9ac4111a,.\38 cbc45de-edc7-48ef-92ae-3b37218ce956,.\39 cf4cdf6-a252-49e9-be99-e3d436ab9386,.aa2122e0-5815-48af-a140-66b75bc12969,.d0b87acb-1386-4986-ab05-e8310ddc03cb,.d4365223-9885-4152-b504-d74f7a87309d,.e8cbdff0-293a-4af6-bb6a-89a8076a0c56,.e9815cd0-8dfa-418e-89de-62b498a47abf,.eb52c650-dd22-43e5-86a4-b661f7729564,.ebb7de89-77d4-48ae-876e-cddb664f23c6,.f5827051-2f4d-4291-a7ba-63df334e729f,.f5a9d391-c305-42c3-8f26-60b2f46f2b27{stroke:#000;stroke-miterlimit:10;stroke-width:0.5px;}.\31 1f35835-4b92-4d11-9d90-bdaf6eb87c3f{fill:#030404;}.d4365223-9885-4152-b504-d74f7a87309d{fill:#040507;}.e8cbdff0-293a-4af6-bb6a-89a8076a0c56{fill:#020304;}.ebb7de89-77d4-48ae-876e-cddb664f23c6{fill:#040506;}.eb52c650-dd22-43e5-86a4-b661f7729564{fill:#060908;}.\35 d123168-c9f6-4e42-95bc-535021d56f2f{fill:#070c0a;}.\37 ad4b5be-2109-4a2a-a429-ef3c30a477df{fill:#070c0b;}.\33 bf490e7-b0c6-4bb0-9d69-24fa50acb671{fill:#090c0b;}.\31 a17a273-1ec0-42bd-92e7-cb8da1465d5e{fill:#020303;}.\36 aa9e689-475e-4b14-8eb1-e4ece68f94bc{fill:#090b0a;}.e9815cd0-8dfa-418e-89de-62b498a47abf{fill:#060e0e;}.\38 cbc45de-edc7-48ef-92ae-3b37218ce956{fill:#080f0d;}.\39 cf4cdf6-a252-49e9-be99-e3d436ab9386{fill:#030303;}.f5827051-2f4d-4291-a7ba-63df334e729f{fill:#050707;}.\31 06648f0-07b8-408a-875b-78ab70f96fab{fill:#030505;}.\37 dd838f2-6482-4a1c-93b4-e1b5a3581591{fill:#1f2322;}.f5a9d391-c305-42c3-8f26-60b2f46f2b27{fill:#06120f;}.d0b87acb-1386-4986-ab05-e8310ddc03cb{fill:#030403;}.\36 c9bdf59-a640-45aa-b2d7-fb5bac6f8614{fill:#141414;}.aa2122e0-5815-48af-a140-66b75bc12969{fill:#2aa285;}.\37 072d1ee-3f42-4e33-87d5-fada98354a50{fill:#fff;}.\38 15a80a3-cb8f-424a-aaa0-861f9ac4111a{fill:#288d8b;}.\30 11e9c74-7102-4ae6-82d6-323c284c7b95{fill:#262626;}.a5374616-14c6-4548-a95a-556b3a55f2a4{font-size:12px;font-family:Arial;}</style></defs>
<title>PB_vectors</title>
<path class="40cae442-98da-49a1-936a-fb4eb1fe6cb6" d="M177.7,15a18,18,0,0,1,5.83-1c4.76-.32,9.52-0.15,14.28-0.16a24.57,24.57,0,0,1,6.33.57,34.45,34.45,0,0,1,8.18,3.36,17.42,17.42,0,0,1,4.59,4.12c3.11,3.66,5.24,8,7.65,12.05q4.86,8.25,9.61,16.57a7.66,7.66,0,0,1,1.29,4.36,10.34,10.34,0,0,1-.84,2.59,40.24,40.24,0,0,1-2.2,5.73,9,9,0,0,1-5.91,5,5.68,5.68,0,0,1-4.84-1c-1.94-1.51-4-2.95-5.24-5.2-1.11-2-2.28-4-3.42-6a125.41,125.41,0,0,0-6.94-11.19,19.28,19.28,0,0,0-3.54-4,3.2,3.2,0,0,0-1.68-.75,4,4,0,0,1-1.61,0c-0.22-.45.13-0.49,0.41-0.53a4.42,4.42,0,0,1,3.93,1.17,20.45,20.45,0,0,1,2.54,2.91c1.07,1.53,2.18,3,3.14,4.64,0.13,0.19.24,0.39,0.38,0.58,1.5,2.37,2.92,4.79,4.28,7.24,1.08,1.95,2.28,3.82,3.29,5.8l0.21,0.27a6.65,6.65,0,0,0,2,2.12A10,10,0,0,1,221,65.72a6,6,0,0,0,8.13.33,11.83,11.83,0,0,0,3.26-4.65c0.72-1.89,1.38-3.81,2.12-5.7a4.7,4.7,0,0,0-.43-3.73,23.15,23.15,0,0,0-1.45-2.71c-1.44-2.35-2.78-4.77-4.2-7.13a2.17,2.17,0,0,0-.42-0.57c-0.57-1.23-1.25-2.39-1.92-3.57-2.38-4-4.7-8.08-7.11-12.09a11.1,11.1,0,0,0-1.25-1.72c-0.47-.52-0.76-1.19-1.28-1.67a17.83,17.83,0,0,0-8.06-5.85c-0.76-.29-1.49-0.67-2.28-0.9a20.33,20.33,0,0,0-2.47-.74L203.44,15a45.72,45.72,0,0,0-4.82-.36,5.15,5.15,0,0,0-1.23-.14c-2.61,0-5.21,0-7.82,0-3,0-5.93.3-8.9,0.5a7.81,7.81,0,0,0-1.84.43,0.72,0.72,0,0,1-.52,0C178.32,15,177.84,15.24,177.7,15Z" transform="translate(-2.29 -2.9)"/>
<path class="11f35835-4b92-4d11-9d90-bdaf6eb87c3f" d="M42.36,46.14a9.06,9.06,0,0,1-1.53,3.27c-2.25,4-4.53,8-6.77,12a7.08,7.08,0,0,1-1.65,1.76,21.87,21.87,0,0,1-6.09,4.15,22.55,22.55,0,0,1-5.87,1.8,7.32,7.32,0,0,1-6.76-2.88,21.18,21.18,0,0,1-4.29-7.56,7.07,7.07,0,0,1,.32-4.3C9.81,54.2,9.89,54,10,53.76s0.31,0,.41.12a1.36,1.36,0,0,1,0,1c-0.79,2.09-.25,4,0.64,5.94a21,21,0,0,0,3.76,5.52c2,2.12,4.48,2.49,7.19,1.77a21.28,21.28,0,0,0,7.41-3.39c0.21-.17.43-0.33,0.64-0.49,0.76-.65,1.58-1.21,2.32-1.89,1.46-1.33,2.14-3.16,3.13-4.79,0.54-.9,1-1.84,1.57-2.73,0.18-.29.32-0.61,0.47-0.91,1.23-2.2,2.42-4.42,3.71-6.58a5.88,5.88,0,0,0,.65-1.93c0.05-.26,0-0.63.48-0.54A1.76,1.76,0,0,1,42.36,46.14Z" transform="translate(-2.29 -2.9)"/>
<path class="d4365223-9885-4152-b504-d74f7a87309d" d="M125.21,49a17.85,17.85,0,0,0-7.46-.41,52.91,52.91,0,0,0-6.32,1.74c-2.77.95-5.53,2-8.32,2.86a13.7,13.7,0,0,1-5.33.27c-3.89-.32-7.78-0.16-11.67-0.22a29,29,0,0,1-10.63-2c-1-.39-1.93-0.74-2.89-1.11a2.64,2.64,0,0,0,.7-0.39,3.62,3.62,0,0,1,.92.24c1.81,0.58,3.54,1.37,5.39,1.82a38.29,38.29,0,0,0,6.89.79c1.1,0.06,2.21,0,3.32,0,0.28,0,.56,0,0.84,0,2.89-.13,5.78.08,8.67,0.17a15.77,15.77,0,0,0,6.15-1.14,6.48,6.48,0,0,1,.74-0.26,5.6,5.6,0,0,0,.87-0.31c2.06-.64,4.05-1.47,6.14-2,2.53-.69,5.05-1.48,7.73-1.32,0.18,0,.36,0,0.54,0a26,26,0,0,1,4.65.82,0.43,0.43,0,0,1,.42.4A1.43,1.43,0,0,1,125.21,49Z" transform="translate(-2.29 -2.9)"/>
<path class="e8cbdff0-293a-4af6-bb6a-89a8076a0c56" d="M92.18,22.93c2,0.33,4.09.56,6.11,1,1.36,0.28,2.71.53,4.07,0.83a33.53,33.53,0,0,1,5.72,2c2,0.83,3.91,1.76,5.88,2.61a16.43,16.43,0,0,1,3.83,2.81,3.47,3.47,0,0,0,4.06.45,43.74,43.74,0,0,0,6-3.91,14,14,0,0,1,4.42-2.42,29.69,29.69,0,0,1,5.1-.81,12.87,12.87,0,0,1,2.48,0,1.47,1.47,0,0,1-1.11.52,38.29,38.29,0,0,1-4,.55,4,4,0,0,0-.92.21,2.93,2.93,0,0,1-.75.1A13.24,13.24,0,0,0,128.62,29a59.55,59.55,0,0,1-5.53,3.79,14.18,14.18,0,0,1-2.4,1,2.09,2.09,0,0,1-.47,0,3.84,3.84,0,0,1-3.12-1.27c-2.08-2.06-4.73-3.1-7.33-4.24-0.77-.34-1.53-0.71-2.32-1L106.76,27c-4.5-1.85-9.26-2.54-14-3.19a0.93,0.93,0,0,1-.7-0.28A0.43,0.43,0,0,1,92.18,22.93Z" transform="translate(-2.29 -2.9)"/>
<path class="ebb7de89-77d4-48ae-876e-cddb664f23c6" d="M10.29,54A0.34,0.34,0,0,0,10,53.76c1.39-4.53,3.19-8.92,4.88-13.34,1.43-3.74,3-7.45,4.45-11.17,0.3-.16.38,0.05,0.46,0.27a4.75,4.75,0,0,1-.6,2.1Q17,37.05,14.82,42.52c-0.31.69-.53,1.41-0.81,2.11-1,2.66-2,5.3-2.91,8A1.6,1.6,0,0,1,10.29,54Z" transform="translate(-2.29 -2.9)"/>
<path class="eb52c650-dd22-43e5-86a4-b661f7729564" d="M35.41,15.51a77.62,77.62,0,0,1,9.27-2.22,44.28,44.28,0,0,1,12.63-.39,18.15,18.15,0,0,1,4.25,1,0.38,0.38,0,0,1-.1.11c-0.19.13-.58-0.08-0.59,0.35A12.15,12.15,0,0,1,59,13.94a38.4,38.4,0,0,0-9.88-.48,51.64,51.64,0,0,0-7.6,1.27,11.11,11.11,0,0,0-1.17.2c-1.58.26-3.05,1-4.67,1C35.49,15.9,35.25,15.84,35.41,15.51Z" transform="translate(-2.29 -2.9)"/>
<path class="5d123168-c9f6-4e42-95bc-535021d56f2f" d="M142.46,24.83a39.25,39.25,0,0,0,7-1.56c2.8-.78,5.58-1.67,8.41-2.35,1.86-.45,3.74-0.71,5.62-1a0.93,0.93,0,0,1,.5.4,1.43,1.43,0,0,1-1,.41,4.72,4.72,0,0,0-1.11.15,62.21,62.21,0,0,0-9.52,2.32c-1.2.36-2.41,0.73-3.62,1a11.16,11.16,0,0,1-1.13.32,26.13,26.13,0,0,1-5.22,1c-0.57,0-1.15.09-1.72,0.08-0.31-.1-0.86.13-0.75-0.55a2.28,2.28,0,0,1,1,0A4.6,4.6,0,0,0,142.46,24.83Z" transform="translate(-2.29 -2.9)"/>
<path class="7ad4b5be-2109-4a2a-a429-ef3c30a477df" d="M35.41,15.51a0.34,0.34,0,0,0,.37.32,0.73,0.73,0,0,1-.68.55,34.38,34.38,0,0,0-7.67,4.13,29.08,29.08,0,0,0-4.29,4A12.09,12.09,0,0,0,22,25.86c-0.37.6-.83,1.14-1.16,1.76-0.26.47-.49,1-0.73,1.44a0.7,0.7,0,0,1-.48.54,0.34,0.34,0,0,0-.32-0.36c1-2.92,3.05-5.12,5.22-7.21A30.1,30.1,0,0,1,35.41,15.51Z" transform="translate(-2.29 -2.9)"/>
<path class="3bf490e7-b0c6-4bb0-9d69-24fa50acb671" d="M156.91,52.22a37.08,37.08,0,0,1-4.91-.81c-2.39-.4-4.76-0.71-7.14.13-1,.36-2.11.54-3.17,0.8a3.79,3.79,0,0,1-1.49,0,0.87,0.87,0,0,1,.61-0.49c2.56-.68,5.05-1.65,7.76-1.66a5.11,5.11,0,0,1,1.33.15c0.27,0,.54,0,0.8,0a35.06,35.06,0,0,0,4.26.77,5.73,5.73,0,0,1,1.46.33,9.52,9.52,0,0,0,3.17.26,0.81,0.81,0,0,1,.27,0,0.39,0.39,0,0,1,.34.36,4.53,4.53,0,0,1-2.82.18A3,3,0,0,1,156.91,52.22Z" transform="translate(-2.29 -2.9)"/>
<path class="1a17a273-1ec0-42bd-92e7-cb8da1465d5e" d="M92.18,22.93L92,23.36a0.38,0.38,0,0,1-.22.15c-4.24-.29-8.49-0.5-12.5-2.13a3.63,3.63,0,0,0-.81-0.33c-2-.83-4-1.67-6.06-2.33a1.68,1.68,0,0,1-.76-0.39c-0.1-.18-0.13-0.35.13-0.38a1.44,1.44,0,0,1,.67.05A50.21,50.21,0,0,1,79,20.53c1.52,0.65,3.13,1,4.66,1.55a3.94,3.94,0,0,1,.92.06,2,2,0,0,0,1.35.23,3.67,3.67,0,0,1,1.16.08l2.55,0.18a8.42,8.42,0,0,0,1.51.28A2.4,2.4,0,0,1,92.18,22.93Z" transform="translate(-2.29 -2.9)"/>
<path class="6aa9e689-475e-4b14-8eb1-e4ece68f94bc" d="M160.17,52l-0.31-.15a24.61,24.61,0,0,1,2.82-1.34c1.23-.68,2.48-1.35,3.74-2,0.46-.22.91-0.47,1.37-0.69a42.05,42.05,0,0,1,7.47-2.05c0.25,0.08.59,0.09,0.42,0.51a39.18,39.18,0,0,0-12.1,4.55,6.87,6.87,0,0,1-3.28,1.18S160.19,52.09,160.17,52Z" transform="translate(-2.29 -2.9)"/>
<path class="e9815cd0-8dfa-418e-89de-62b498a47abf" d="M140.88,52l-0.63.32h1.44a9.83,9.83,0,0,1-6.07-.34c-2.3-.74-4.64-1.37-7-2-1.15-.33-2.3-0.63-3.44-0.95a2.36,2.36,0,0,0,1.28-.17,2.3,2.3,0,0,1,1.59.16c1.91,0.52,3.81,1.13,5.71,1.68a1.81,1.81,0,0,1,.5.12c1.94,0.55,3.83,1.39,5.92,1A0.67,0.67,0,0,1,140.88,52Z" transform="translate(-2.29 -2.9)"/>
<path class="8cbc45de-edc7-48ef-92ae-3b37218ce956" d="M64.34,47.41c-3-1-6.07-2-9.11-2.91-1.49-.46-3-0.64-4.54-1.12A8,8,0,0,0,49.77,43c0.2-.16.45-0.25,0.65-0.42,2.13,0.52,4.27,1,6.35,1.64,0.49,0.18,1,.31,1.49.45,2,0.57,4,1.29,5.92,1.93a0.81,0.81,0,0,1,.51.35C64.74,47.25,64.46,47.27,64.34,47.41Z" transform="translate(-2.29 -2.9)"/>
<path class="9cf4cdf6-a252-49e9-be99-e3d436ab9386" d="M164,20.26c-0.22,0-.49,0-0.51-0.33a46.41,46.41,0,0,0,6.13-1.17,45.24,45.24,0,0,0,5.05-2.34l3-1.42,0.67,0.08-0.17.24a1.14,1.14,0,0,1-.55.48c-2,.8-3.81,1.81-5.67,2.79a22.5,22.5,0,0,1-7.07,1.84A1,1,0,0,1,164,20.26Z" transform="translate(-2.29 -2.9)"/>
<path class="f5827051-2f4d-4291-a7ba-63df334e729f" d="M199.23,39.83c0.51,0.36,1.1.06,1.64,0.18a20.09,20.09,0,0,1-3.63.52c-1.78.27-3.56,0.5-5.32,0.9a2.57,2.57,0,0,1-.55,0,10.26,10.26,0,0,0-1.94.47c-1.24.32-2.47,0.65-3.71,1a1.34,1.34,0,0,0-.5.17,1.35,1.35,0,0,1-.62,0c-0.35,0-.25-0.24-0.12-0.44a22.83,22.83,0,0,1,4-1.21c2-.58,4-0.83,6-1.21,0.88-.17,1.77-0.23,2.64-0.4a6.08,6.08,0,0,1,1.33-.2A1,1,0,0,1,199.23,39.83Z" transform="translate(-2.29 -2.9)"/>
<path class="106648f0-07b8-408a-875b-78ab70f96fab" d="M72.49,18c-0.2.18-.69-0.3-0.71,0.3a0.62,0.62,0,0,1-.73,0c-1.78-.58-3.46-1.42-5.2-2.08l-3-1.12a3.17,3.17,0,0,0-.79-0.21A1.26,1.26,0,0,1,61,14.2c0-.1-0.41-0.23,0-0.29,0.17,0,.35,0,0.52,0,2.75,0.81,5.36,2,8,3.06C70.54,17.32,71.52,17.65,72.49,18Z" transform="translate(-2.29 -2.9)"/>
<path class="7dd838f2-6482-4a1c-93b4-e1b5a3581591" d="M184.52,42.69c0,0.64.53,0.1,0.7,0.34-1.93.54-3.71,1.47-5.61,2.1-1.3.43-2.63,0.8-3.94,1.19,0-.35-0.29-0.3-0.51-0.35a0.75,0.75,0,0,1,.72-0.49,44.07,44.07,0,0,0,5.12-1.7l1.35-.63a10.52,10.52,0,0,1,1-.33A1.53,1.53,0,0,1,184.52,42.69Z" transform="translate(-2.29 -2.9)"/>
<path class="106648f0-07b8-408a-875b-78ab70f96fab" d="M64.34,47.41a0.34,0.34,0,0,1,.36-0.32,1.07,1.07,0,0,1,1.06,0c2.29,0.77,4.64,1.39,6.88,2.3a1.64,1.64,0,0,1,.41.23,0.46,0.46,0,0,1,.14.21c0,0.58-.43.16-0.61,0.29C69.88,49.09,67.09,48.31,64.34,47.41Z" transform="translate(-2.29 -2.9)"/>
<path class="f5a9d391-c305-42c3-8f26-60b2f46f2b27" d="M42.36,46.14c-0.1-.42.2-0.9-0.22-1.27a5.3,5.3,0,0,1,.55-2.94,3.62,3.62,0,0,1,.56-0.7,3.44,3.44,0,0,1,3.89.2,0.42,0.42,0,0,1-.2.45c-0.43-.11-0.86-0.2-1.28-0.32A1.92,1.92,0,0,0,43,43.21C42.82,44.19,42.59,45.16,42.36,46.14Z" transform="translate(-2.29 -2.9)"/>
<path class="d0b87acb-1386-4986-ab05-e8310ddc03cb" d="M46.95,41.89a0.37,0.37,0,0,1,.21-0.35,1.22,1.22,0,0,1,1.18.15,6.65,6.65,0,0,1,1.93,1c0.14,0.6-.37.16-0.5,0.32Z" transform="translate(-2.29 -2.9)"/>
<path class="6c9bdf59-a640-45aa-b2d7-fb5bac6f8614" d="M139.93,25.13c0.1,0.53.55,0.23,0.82,0.34a1.75,1.75,0,0,1-2.09.29c0.25-.3.66,0,1.05-0.32h-2.35Z" transform="translate(-2.29 -2.9)"/>
<path class="aa2122e0-5815-48af-a140-66b75bc12969" d="M160.17,52a0.09,0.09,0,0,1,.11,0,0.3,0.3,0,0,1-.32.35,6,6,0,0,1-3-.18l2.17,0.12A1.42,1.42,0,0,0,160.17,52Z" transform="translate(-2.29 -2.9)"/>
<path class="e8cbdff0-293a-4af6-bb6a-89a8076a0c56" d="M87.1,22.45H85.2c-0.25,0-.56.08-0.62-0.31Z" transform="translate(-2.29 -2.9)"/>
<path class="7dd838f2-6482-4a1c-93b4-e1b5a3581591" d="M189.43,41.91c0.55-.56,1.28-0.34,1.94-0.47A6.92,6.92,0,0,1,189.43,41.91Z" transform="translate(-2.29 -2.9)"/>
<path class="e8cbdff0-293a-4af6-bb6a-89a8076a0c56" d="M91.16,22.91a1.92,1.92,0,0,1-1.51-.28A3.69,3.69,0,0,1,91.16,22.91Z" transform="translate(-2.29 -2.9)"/>
<path class="6c9bdf59-a640-45aa-b2d7-fb5bac6f8614" d="M142.46,24.83c-0.41.56-1,.23-1.5,0.29A5.16,5.16,0,0,1,142.46,24.83Z" transform="translate(-2.29 -2.9)"/>
<path class="7072d1ee-3f42-4e33-87d5-fada98354a50 tb1_cell_4" d="M184.52,42.69L183.4,43a1,1,0,0,1,.16-1,20.27,20.27,0,0,0,1.69-7.9,32.73,32.73,0,0,0-1.17-10.16c-0.76-2.7-1.73-5.32-3.86-7.31a8.19,8.19,0,0,1-1.57-1.31,3.12,3.12,0,0,1,1.68-.55,39.71,39.71,0,0,1,4.63-.35c4-.27,8-0.11,12-0.14a3.39,3.39,0,0,1,.54.08A2.76,2.76,0,0,1,199,15.58a15,15,0,0,1,2.76,5.79,24,24,0,0,1,.65,8.29,15.68,15.68,0,0,1-2.73,8,5.37,5.37,0,0,1-2.47,2.22,10,10,0,0,1-2.61.48c-2.24.47-4.51,0.77-6.72,1.42C186.78,42.15,185.65,42.47,184.52,42.69Z" transform="translate(-2.29 -2.9)"/>
<path class="7072d1ee-3f42-4e33-87d5-fada98354a50 tb1_cell_5" d="M199.23,39.83h-0.79a0.91,0.91,0,0,1,.42-0.79,15.27,15.27,0,0,0,3.51-7.79,23.75,23.75,0,0,0-.05-8.15,16.8,16.8,0,0,0-3-7.53,0.86,0.86,0,0,1-.33-1,0.77,0.77,0,0,1,.68-0.13c1.34,0.23,2.71.11,4,.38h0c0.81,0.39,1.7.49,2.53,0.8a27,27,0,0,1,6.28,2.85,13.82,13.82,0,0,1,4.14,4,10.44,10.44,0,0,1,1.52,4.91,27.45,27.45,0,0,1-2.91,14.5,14.71,14.71,0,0,1-5,6.17,1,1,0,0,1-1,.34c-1.15-1.65-2.27-3.33-3.46-5a14,14,0,0,0-3-3.14A4,4,0,0,0,199.23,39.83Z" transform="translate(-2.29 -2.9)"/>
<path class="7072d1ee-3f42-4e33-87d5-fada98354a50 tb1_cell_6" d="M217.09,61.92l-7.59-13c0.71-.74,1.62-1.22,2.36-1.94a20.66,20.66,0,0,0,4.66-7.6,28.93,28.93,0,0,0,1.71-7.11,19.69,19.69,0,0,0-.34-7.43,0.68,0.68,0,0,1,0-.74,42.74,42.74,0,0,1,3.8,5.94c1.54,2.52,3,5.09,4.47,7.65a1.11,1.11,0,0,1,.07.3,1.7,1.7,0,0,0,.36.86A13.11,13.11,0,0,1,228,46.44a20.56,20.56,0,0,1-3.11,9.25,14.42,14.42,0,0,1-5.46,5.44A22.09,22.09,0,0,1,217.09,61.92Z" transform="translate(-2.29 -2.9)"/>
<path class="7072d1ee-3f42-4e33-87d5-fada98354a50 tb1_cell_7" d="M228.14,41.44a1.45,1.45,0,0,1,.69.91c1.75,3.18,3.79,6.21,5.42,9.46a5.45,5.45,0,0,1,.18,4.89c-0.79,1.84-1.44,3.75-2.17,5.62a8.66,8.66,0,0,1-5.35,5.22,5.56,5.56,0,0,1-5.47-1.18c-1-.88-1.94-1.85-3-2.65a4,4,0,0,1-1.15-1.57,0.68,0.68,0,0,1,.41-0.21,11,11,0,0,0,5.88-4,19.77,19.77,0,0,0,3.95-7.83A17.92,17.92,0,0,0,228,42.5,1.22,1.22,0,0,1,228.14,41.44Z" transform="translate(-2.29 -2.9)"/>
<path class="815a80a3-cb8f-424a-aaa0-861f9ac4111a" d="M198.89,14.7l-0.29-.26a19.38,19.38,0,0,1,5.06.41c-1.26-.09-2.53-0.17-3.79-0.28A1.62,1.62,0,0,0,198.89,14.7Z" transform="translate(-2.29 -2.9)"/>
<path class="815a80a3-cb8f-424a-aaa0-861f9ac4111a" d="M206.19,15.64a6.24,6.24,0,0,1-2.53-.8A9.24,9.24,0,0,1,206.19,15.64Z" transform="translate(-2.29 -2.9)"/>
<path class="7072d1ee-3f42-4e33-87d5-fada98354a50 tb1_cell_2" d="M42.84,41.91l-0.7,3c-0.23,2.47-1.91,4.27-2.94,6.38-0.48,1-1.08,1.9-1.63,2.85A1.86,1.86,0,0,1,36,53.65a28.71,28.71,0,0,1-10-8.74,25.47,25.47,0,0,1-4.86-11.69,14.83,14.83,0,0,1,.3-6.19,6,6,0,0,0,.5-1.23,26.17,26.17,0,0,1,8.06-7.15,31.48,31.48,0,0,1,5.51-2.58,1.26,1.26,0,0,0,.31-0.24l3.82-.93a1.8,1.8,0,0,1,.76-0.1c0.33,0.29,0,.48-0.13.65A14,14,0,0,0,37.47,22a24.79,24.79,0,0,0-.23,8.07,20.67,20.67,0,0,0,3,8.81,14.61,14.61,0,0,0,2,2.4A2,2,0,0,1,42.84,41.91Z" transform="translate(-2.29 -2.9)"/>
<path class="7072d1ee-3f42-4e33-87d5-fada98354a50 tb1_cell_1" d="M19.62,29.61a15.54,15.54,0,0,1,1.11-2.09,0.59,0.59,0,0,1,.22.76,17.76,17.76,0,0,0,.67,8.34,27.79,27.79,0,0,0,4.46,8.84,29.29,29.29,0,0,0,10.4,8.66,0.79,0.79,0,0,1,.66.68,5.32,5.32,0,0,1-.77,1.52C35.5,57.9,34.6,59.46,33.72,61a6,6,0,0,1-1.58,1.73A12.16,12.16,0,0,1,30,64.38a3.32,3.32,0,0,1-2.6-.29,18.73,18.73,0,0,1-6.35-4,22.69,22.69,0,0,1-6-8.52A12,12,0,0,1,14.6,43a2.15,2.15,0,0,0,.1-0.46A19.14,19.14,0,0,1,16,39c1.16-3,2.36-6,3.54-9A2.56,2.56,0,0,0,19.62,29.61Z" transform="translate(-2.29 -2.9)"/>
<path class="7072d1ee-3f42-4e33-87d5-fada98354a50 tb1_cell_0" d="M10.29,54a12.24,12.24,0,0,0,1.09-2.88c0.8-2.11,1.55-4.24,2.33-6.35a0.53,0.53,0,0,1,.17-0.15,0.4,0.4,0,0,1,.11.36c-0.43,4.51,1.25,8.35,3.87,11.85a22.07,22.07,0,0,0,8.46,7,7.71,7.71,0,0,0,2.7.82,0.59,0.59,0,0,1,.49.21,20.34,20.34,0,0,1-8.78,3.71,6.52,6.52,0,0,1-6.4-2.36,22.85,22.85,0,0,1-3.88-6.05,6.93,6.93,0,0,1-.32-5.33A2.09,2.09,0,0,0,10.29,54Z" transform="translate(-2.29 -2.9)"/>
<path class="7072d1ee-3f42-4e33-87d5-fada98354a50 tb1_cell_6" d="M92.64,23.6a30.48,30.48,0,0,1,4.74.64,44.57,44.57,0,0,1,5.82,1.25,14.72,14.72,0,0,1,3.68,1.4,1,1,0,0,1-.49.85,13.66,13.66,0,0,0-3.3,6.11,20.64,20.64,0,0,0-.71,7.74,15.12,15.12,0,0,0,3.62,9,0.83,0.83,0,0,1,.41.93,27.72,27.72,0,0,1-4,1.29,23.53,23.53,0,0,1-5.83.1q-2.72-.14-5.44-0.1c-0.18,0-.37,0-0.55,0a8.13,8.13,0,0,1-2.54-4.09,24.32,24.32,0,0,1-1.2-7,36,36,0,0,1,.52-8.23,21.11,21.11,0,0,1,2.38-6.74A7.88,7.88,0,0,1,92.64,23.6Z" transform="translate(-2.29 -2.9)"/>
<path class="7072d1ee-3f42-4e33-87d5-fada98354a50 tb1_cell_5" d="M79.21,21.15a30.15,30.15,0,0,0,5.53,1.53c1.36,0.17,2.74.3,4.12,0.41a21.74,21.74,0,0,1,3,.34,1.07,1.07,0,0,1-.46.79,16.07,16.07,0,0,0-3.61,6.84,31.22,31.22,0,0,0-1.15,7.7,29.76,29.76,0,0,0,.81,8.59,12.19,12.19,0,0,0,2.13,4.71,0.54,0.54,0,0,1,.19.69,48.51,48.51,0,0,1-8.38-.42A30.8,30.8,0,0,1,74,50a8.13,8.13,0,0,1-1.91-3.84,26.09,26.09,0,0,1,.17-12.81,29.43,29.43,0,0,1,3.2-8,17.91,17.91,0,0,1,3.34-4A0.93,0.93,0,0,1,79.21,21.15Z" transform="translate(-2.29 -2.9)"/>
<path class="7072d1ee-3f42-4e33-87d5-fada98354a50 tb1_cell_7" d="M107.52,27.09a62,62,0,0,1,7.21,3.24,18.68,18.68,0,0,1,2.82,2.27,3.59,3.59,0,0,0,2.74,1c0.49,2.66.78,5.34,1,8a24.35,24.35,0,0,1-.36,6.26,29.33,29.33,0,0,0-9.23,1.87q-2.11.69-4.19,1.44a1.06,1.06,0,0,1-1.34-.72,14.94,14.94,0,0,1-3.63-9.92,20.53,20.53,0,0,1,.81-6.93c0.77-2.37,1.73-4.64,3.77-6.25A1.59,1.59,0,0,1,107.52,27.09Z" transform="translate(-2.29 -2.9)"/>
<path class="7072d1ee-3f42-4e33-87d5-fada98354a50 tb1_cell_0" d="M133.76,50.86l-6.13-1.75c-0.38-.11-0.76-0.18-1.14-0.26a37.13,37.13,0,0,0-5.07-1,1.31,1.31,0,0,1-.15-1.2,24.46,24.46,0,0,0,0-6.67,54.7,54.7,0,0,0-.75-5.85,0.47,0.47,0,0,1,.11-0.44c3.51-1.25,6.21-3.81,9.28-5.77A10,10,0,0,1,133,26.63a6.87,6.87,0,0,1,2,2.86,23.49,23.49,0,0,1,2,9.41,24.25,24.25,0,0,1-.75,7.57,11,11,0,0,1-1.87,3.79A2.25,2.25,0,0,1,133.76,50.86Z" transform="translate(-2.29 -2.9)"/>
<path class="7072d1ee-3f42-4e33-87d5-fada98354a50 tb1_cell_1" d="M138.67,25.76a5.13,5.13,0,0,0,2.09-.29,23,23,0,0,0,6.1-1,2,2,0,0,1,.85-0.11,1.79,1.79,0,0,1,1.3.94,17,17,0,0,1,2.79,5.72,31.52,31.52,0,0,1,1.31,10A18.5,18.5,0,0,1,151.78,48a6,6,0,0,1-1.89,2.57,13.75,13.75,0,0,0-6.22.76c-0.92.26-1.86,0.48-2.79,0.72-2.22.5-4.27-.34-6.35-0.86a1,1,0,0,1-.3-0.23,1,1,0,0,1,.28-0.55,13.18,13.18,0,0,0,2.38-6.18,28.5,28.5,0,0,0-.54-11.42A14.19,14.19,0,0,0,134,27.47a0.86,0.86,0,0,1-.3-0.92,4,4,0,0,1,1.93-.43A28.56,28.56,0,0,1,138.67,25.76Z" transform="translate(-2.29 -2.9)"/>
<path class="7072d1ee-3f42-4e33-87d5-fada98354a50 tb1_cell_3" d="M50.27,42.7c-0.81-.33-1.63-0.66-2.43-1a1.47,1.47,0,0,0-.68-0.15,3.7,3.7,0,0,0-3.87-.1c-0.75.17-1.08-.43-1.47-0.86A16.69,16.69,0,0,1,38.24,34a24.26,24.26,0,0,1-1.08-7.31,19.47,19.47,0,0,1,2.25-9.81,9.21,9.21,0,0,1,2-2.32,41,41,0,0,1,13.53-1.34,27.39,27.39,0,0,1,5.12.71,1.84,1.84,0,0,0,1,.28l1.12,0.51a0.54,0.54,0,0,1-.38.54c-2.46,1.4-3.81,3.7-4.95,6.16a27.45,27.45,0,0,0-2.08,6.85,24.47,24.47,0,0,0,.67,12.6,10.16,10.16,0,0,0,1.27,2.53,1.71,1.71,0,0,1,.41.84c0,0.19-.06.31-0.28,0.2L51.08,43C50.81,42.88,50.54,42.78,50.27,42.7Z" transform="translate(-2.29 -2.9)"/>
<path class="7072d1ee-3f42-4e33-87d5-fada98354a50 tb1_cell_2" d="M166.49,48.65a37.94,37.94,0,0,1-4.87,2.57,6.93,6.93,0,0,1-1.77.66h-0.17a15.31,15.31,0,0,1-3.3-.17,16.35,16.35,0,0,0-2.68-.51,30.43,30.43,0,0,1-3-.61A0.53,0.53,0,0,1,150.8,50a14.32,14.32,0,0,0,2.37-7.32,27,27,0,0,0,0-5.43,29.63,29.63,0,0,0-1.57-7.31,14.55,14.55,0,0,0-2.76-5,0.58,0.58,0,0,1-.19-0.77c1.47-.45,2.93-0.92,4.41-1.35s3.1-.91,4.66-1.3a20.54,20.54,0,0,1,4.25-.75,1.48,1.48,0,0,1,.93.54,18.8,18.8,0,0,1,4.87,7.92,27.23,27.23,0,0,1,1.65,10.3,17.26,17.26,0,0,1-2,7.89A3.19,3.19,0,0,1,166.49,48.65Z" transform="translate(-2.29 -2.9)"/>
<path class="7072d1ee-3f42-4e33-87d5-fada98354a50 tb1_cell_3" d="M177.71,15.62a4.83,4.83,0,0,1,3.13,2.2,18.44,18.44,0,0,1,2.93,6.42,30.94,30.94,0,0,1,1.19,8,20.65,20.65,0,0,1-2.5,11,31,31,0,0,1-6.58,2.37,5.18,5.18,0,0,0-.71.3,23.62,23.62,0,0,0-3.25.81,27.42,27.42,0,0,0-4.16,1.29c-0.53-.27-0.12-0.59,0-0.83A15.4,15.4,0,0,0,169,43.52a24.39,24.39,0,0,0,.46-6.74,32.8,32.8,0,0,0-1.57-7.63,20.77,20.77,0,0,0-4.62-7.82,0.61,0.61,0,0,1-.27-0.75l1-.32a21.74,21.74,0,0,0,9.29-2.54A24.68,24.68,0,0,1,177.71,15.62Z" transform="translate(-2.29 -2.9)"/>
<path class="011e9c74-7102-4ae6-82d6-323c284c7b95" d="M156.39,51.71c1.11-.11,2.19.25,3.3,0.17A7,7,0,0,1,156.39,51.71Z" transform="translate(-2.29 -2.9)"/>
<path class="7072d1ee-3f42-4e33-87d5-fada98354a50 tb1_cell_4" d="M78.56,20.91a21.12,21.12,0,0,0-3.42,4.21,29.8,29.8,0,0,0-3.26,8.17A31.71,31.71,0,0,0,71,41.55a16.52,16.52,0,0,0,2,7.8,1.38,1.38,0,0,1,.09.38c-2.62-1-5.28-1.81-7.95-2.62a1.62,1.62,0,0,0-.39,0,19.3,19.3,0,0,0-3-1.08c-1.16-.45-2.36-0.8-3.54-1.19a7.49,7.49,0,0,1-2.42-3.53,18.8,18.8,0,0,1-1.3-6.38,30,30,0,0,1,.51-7,26.11,26.11,0,0,1,3.89-9.75,9,9,0,0,1,4.09-3.23c2.64,0.86,5.15,2.06,7.75,3,0.36,0.14.73,0.25,1.1,0.38A53,53,0,0,1,78.56,20.91Z" transform="translate(-2.29 -2.9)"/>
<text class="a5374616-14c6-4548-a95a-556b3a55f2a4" transform="translate(0 10.3)">TB1</text>
<path class="40cae442-98da-49a1-936a-fb4eb1fe6cb6" d="M177.7,90.06a18,18,0,0,1,5.83-1c4.76-.32,9.52-0.15,14.28-0.16a24.57,24.57,0,0,1,6.33.57,34.45,34.45,0,0,1,8.18,3.36,17.42,17.42,0,0,1,4.59,4.12c3.11,3.66,5.24,8,7.65,12.05q4.86,8.25,9.61,16.57a7.66,7.66,0,0,1,1.29,4.36,10.34,10.34,0,0,1-.84,2.59,40.24,40.24,0,0,1-2.2,5.73,9,9,0,0,1-5.91,5,5.68,5.68,0,0,1-4.84-1c-1.94-1.51-4-2.95-5.24-5.2-1.11-2-2.28-4-3.42-6a125.41,125.41,0,0,0-6.94-11.19,19.28,19.28,0,0,0-3.54-4,3.2,3.2,0,0,0-1.68-.75,4,4,0,0,1-1.61,0c-0.22-.45.13-0.49,0.41-0.53a4.42,4.42,0,0,1,3.93,1.17,20.45,20.45,0,0,1,2.54,2.91c1.07,1.53,2.18,3,3.14,4.64,0.13,0.19.24,0.39,0.38,0.58,1.5,2.37,2.92,4.79,4.28,7.24,1.08,1.95,2.28,3.82,3.29,5.8l0.21,0.27a6.65,6.65,0,0,0,2,2.12,10,10,0,0,1,1.63,1.49,6,6,0,0,0,8.13.33,11.83,11.83,0,0,0,3.26-4.65c0.72-1.89,1.38-3.81,2.12-5.7a4.7,4.7,0,0,0-.43-3.73,23.15,23.15,0,0,0-1.45-2.71c-1.44-2.35-2.78-4.77-4.2-7.13a2.17,2.17,0,0,0-.42-0.57c-0.57-1.23-1.25-2.39-1.92-3.57-2.38-4-4.7-8.08-7.11-12.09a11.1,11.1,0,0,0-1.25-1.72c-0.47-.52-0.76-1.19-1.28-1.67a17.83,17.83,0,0,0-8.06-5.85c-0.76-.29-1.49-0.67-2.28-0.9a20.33,20.33,0,0,0-2.47-.74L203.44,90a45.72,45.72,0,0,0-4.82-.36,5.15,5.15,0,0,0-1.23-.14c-2.61,0-5.21,0-7.82,0-3,0-5.93.3-8.9,0.5a7.81,7.81,0,0,0-1.84.43,0.72,0.72,0,0,1-.52,0C178.32,90.05,177.84,90.29,177.7,90.06Z" transform="translate(-2.29 -2.9)"/>
<path class="11f35835-4b92-4d11-9d90-bdaf6eb87c3f" d="M42.36,121.2a9.06,9.06,0,0,1-1.53,3.27c-2.25,4-4.53,8-6.77,12a7.08,7.08,0,0,1-1.65,1.76,21.87,21.87,0,0,1-6.09,4.15,22.55,22.55,0,0,1-5.87,1.8,7.32,7.32,0,0,1-6.76-2.88,21.18,21.18,0,0,1-4.29-7.56,7.07,7.07,0,0,1,.32-4.3c0.07-.22.15-0.44,0.23-0.66s0.31,0,.41.12a1.36,1.36,0,0,1,0,1c-0.79,2.09-.25,4,0.64,5.94a21,21,0,0,0,3.76,5.52c2,2.12,4.48,2.49,7.19,1.77a21.28,21.28,0,0,0,7.41-3.39c0.21-.17.43-0.33,0.64-0.49,0.76-.65,1.58-1.21,2.32-1.89,1.46-1.33,2.14-3.16,3.13-4.79,0.54-.9,1-1.84,1.57-2.73,0.18-.29.32-0.61,0.47-0.91,1.23-2.2,2.42-4.42,3.71-6.58a5.88,5.88,0,0,0,.65-1.93c0.05-.26,0-0.63.48-0.54A1.76,1.76,0,0,1,42.36,121.2Z" transform="translate(-2.29 -2.9)"/>
<path class="d4365223-9885-4152-b504-d74f7a87309d" d="M125.21,124.07a17.85,17.85,0,0,0-7.46-.41,52.91,52.91,0,0,0-6.32,1.74c-2.77.95-5.53,2-8.32,2.86a13.7,13.7,0,0,1-5.33.27c-3.89-.32-7.78-0.16-11.67-0.22a29,29,0,0,1-10.63-2c-1-.39-1.93-0.74-2.89-1.11a2.64,2.64,0,0,0,.7-0.39,3.62,3.62,0,0,1,.92.24c1.81,0.58,3.54,1.37,5.39,1.82a38.29,38.29,0,0,0,6.89.79c1.1,0.06,2.21,0,3.32,0,0.28,0,.56,0,0.84,0,2.89-.13,5.78.08,8.67,0.17a15.77,15.77,0,0,0,6.15-1.14,6.48,6.48,0,0,1,.74-0.26,5.6,5.6,0,0,0,.87-0.31c2.06-.64,4.05-1.47,6.14-2,2.53-.69,5.05-1.48,7.73-1.32,0.18,0,.36,0,0.54,0a26,26,0,0,1,4.65.82,0.43,0.43,0,0,1,.42.4A1.43,1.43,0,0,1,125.21,124.07Z" transform="translate(-2.29 -2.9)"/>
<path class="e8cbdff0-293a-4af6-bb6a-89a8076a0c56" d="M92.18,98c2,0.33,4.09.56,6.11,1,1.36,0.28,2.71.53,4.07,0.83a33.53,33.53,0,0,1,5.72,2c2,0.83,3.91,1.76,5.88,2.61a16.43,16.43,0,0,1,3.83,2.81,3.47,3.47,0,0,0,4.06.45,43.74,43.74,0,0,0,6-3.91,14,14,0,0,1,4.42-2.42,29.69,29.69,0,0,1,5.1-.81,12.87,12.87,0,0,1,2.48,0,1.47,1.47,0,0,1-1.11.52,38.29,38.29,0,0,1-4,.55,4,4,0,0,0-.92.21,2.93,2.93,0,0,1-.75.1,13.24,13.24,0,0,0-4.48,2.24,59.55,59.55,0,0,1-5.53,3.79,14.18,14.18,0,0,1-2.4,1,2.09,2.09,0,0,1-.47,0,3.84,3.84,0,0,1-3.12-1.27c-2.08-2.06-4.73-3.1-7.33-4.24-0.77-.34-1.53-0.71-2.32-1l-0.69-.27c-4.5-1.85-9.26-2.54-14-3.19a0.93,0.93,0,0,1-.7-0.28A0.43,0.43,0,0,1,92.18,98Z" transform="translate(-2.29 -2.9)"/>
<path class="ebb7de89-77d4-48ae-876e-cddb664f23c6" d="M10.29,129a0.34,0.34,0,0,0-.33-0.21c1.39-4.53,3.19-8.92,4.88-13.34,1.43-3.74,3-7.45,4.45-11.17,0.3-.16.38,0.05,0.46,0.27a4.75,4.75,0,0,1-.6,2.1q-2.19,5.44-4.33,10.91c-0.31.69-.53,1.41-0.81,2.11-1,2.66-2,5.3-2.91,8A1.6,1.6,0,0,1,10.29,129Z" transform="translate(-2.29 -2.9)"/>
<path class="eb52c650-dd22-43e5-86a4-b661f7729564" d="M35.41,90.57a77.62,77.62,0,0,1,9.27-2.22A44.28,44.28,0,0,1,57.31,88a18.15,18.15,0,0,1,4.25,1,0.38,0.38,0,0,1-.1.11c-0.19.13-.58-0.08-0.59,0.35A12.15,12.15,0,0,1,59,89a38.4,38.4,0,0,0-9.88-.48,51.64,51.64,0,0,0-7.6,1.27,11.11,11.11,0,0,0-1.17.2c-1.58.26-3.05,1-4.67,1C35.49,91,35.25,90.89,35.41,90.57Z" transform="translate(-2.29 -2.9)"/>
<path class="5d123168-c9f6-4e42-95bc-535021d56f2f" d="M142.46,99.89a39.25,39.25,0,0,0,7-1.56c2.8-.78,5.58-1.67,8.41-2.35,1.86-.45,3.74-0.71,5.62-1a0.93,0.93,0,0,1,.5.4,1.43,1.43,0,0,1-1,.41,4.72,4.72,0,0,0-1.11.15,62.21,62.21,0,0,0-9.52,2.32c-1.2.36-2.41,0.73-3.62,1a11.16,11.16,0,0,1-1.13.32,26.13,26.13,0,0,1-5.22,1c-0.57,0-1.15.09-1.72,0.08-0.31-.1-0.86.13-0.75-0.55a2.28,2.28,0,0,1,1,0A4.6,4.6,0,0,0,142.46,99.89Z" transform="translate(-2.29 -2.9)"/>
<path class="7ad4b5be-2109-4a2a-a429-ef3c30a477df" d="M35.41,90.57a0.34,0.34,0,0,0,.37.32,0.73,0.73,0,0,1-.68.55,34.38,34.38,0,0,0-7.67,4.13,29.08,29.08,0,0,0-4.29,4,12.09,12.09,0,0,0-1.14,1.3c-0.37.6-.83,1.14-1.16,1.76-0.26.47-.49,1-0.73,1.44a0.7,0.7,0,0,1-.48.54,0.34,0.34,0,0,0-.32-0.36c1-2.92,3.05-5.12,5.22-7.21A30.1,30.1,0,0,1,35.41,90.57Z" transform="translate(-2.29 -2.9)"/>
<path class="3bf490e7-b0c6-4bb0-9d69-24fa50acb671" d="M156.91,127.28a37.08,37.08,0,0,1-4.91-.81c-2.39-.4-4.76-0.71-7.14.13-1,.36-2.11.54-3.17,0.8a3.79,3.79,0,0,1-1.49,0,0.87,0.87,0,0,1,.61-0.49c2.56-.68,5.05-1.65,7.76-1.66a5.11,5.11,0,0,1,1.33.15c0.27,0,.54,0,0.8,0a35.06,35.06,0,0,0,4.26.77,5.73,5.73,0,0,1,1.46.33,9.52,9.52,0,0,0,3.17.26,0.81,0.81,0,0,1,.27,0,0.39,0.39,0,0,1,.34.36,4.53,4.53,0,0,1-2.82.18A3,3,0,0,1,156.91,127.28Z" transform="translate(-2.29 -2.9)"/>
<path class="1a17a273-1ec0-42bd-92e7-cb8da1465d5e" d="M92.18,98L92,98.42a0.38,0.38,0,0,1-.22.15c-4.24-.29-8.49-0.5-12.5-2.13a3.63,3.63,0,0,0-.81-0.33c-2-.83-4-1.67-6.06-2.33a1.68,1.68,0,0,1-.76-0.39c-0.1-.18-0.13-0.35.13-0.38a1.44,1.44,0,0,1,.67.05A50.21,50.21,0,0,1,79,95.59c1.52,0.65,3.13,1,4.66,1.55a3.94,3.94,0,0,1,.92.06,2,2,0,0,0,1.35.23,3.67,3.67,0,0,1,1.16.08l2.55,0.18a8.42,8.42,0,0,0,1.51.28A2.4,2.4,0,0,1,92.18,98Z" transform="translate(-2.29 -2.9)"/>
<path class="6aa9e689-475e-4b14-8eb1-e4ece68f94bc" d="M160.17,127.09l-0.31-.15a24.61,24.61,0,0,1,2.82-1.34c1.23-.68,2.48-1.35,3.74-2,0.46-.22.91-0.47,1.37-0.69a42.05,42.05,0,0,1,7.47-2.05c0.25,0.08.59,0.09,0.42,0.51a39.18,39.18,0,0,0-12.1,4.55,6.87,6.87,0,0,1-3.28,1.18S160.19,127.15,160.17,127.09Z" transform="translate(-2.29 -2.9)"/>
<path class="e9815cd0-8dfa-418e-89de-62b498a47abf" d="M140.88,127.08l-0.63.32h1.44a9.83,9.83,0,0,1-6.07-.34c-2.3-.74-4.64-1.37-7-2-1.15-.33-2.3-0.63-3.44-0.95a2.36,2.36,0,0,0,1.28-.17,2.3,2.3,0,0,1,1.59.16c1.91,0.52,3.81,1.13,5.71,1.68a1.81,1.81,0,0,1,.5.12c1.94,0.55,3.83,1.39,5.92,1A0.67,0.67,0,0,1,140.88,127.08Z" transform="translate(-2.29 -2.9)"/>
<path class="8cbc45de-edc7-48ef-92ae-3b37218ce956" d="M64.34,122.47c-3-1-6.07-2-9.11-2.91-1.49-.46-3-0.64-4.54-1.12a8,8,0,0,0-.93-0.37c0.2-.16.45-0.25,0.65-0.42,2.13,0.52,4.27,1,6.35,1.64,0.49,0.18,1,.31,1.49.45,2,0.57,4,1.29,5.92,1.93a0.81,0.81,0,0,1,.51.35C64.74,122.31,64.46,122.33,64.34,122.47Z" transform="translate(-2.29 -2.9)"/>
<path class="9cf4cdf6-a252-49e9-be99-e3d436ab9386" d="M164,95.31c-0.22,0-.49,0-0.51-0.33a46.41,46.41,0,0,0,6.13-1.17,45.24,45.24,0,0,0,5.05-2.34l3-1.42,0.67,0.08-0.17.24a1.14,1.14,0,0,1-.55.48c-2,.8-3.81,1.81-5.67,2.79a22.5,22.5,0,0,1-7.07,1.84A1,1,0,0,1,164,95.31Z" transform="translate(-2.29 -2.9)"/>
<path class="f5827051-2f4d-4291-a7ba-63df334e729f" d="M199.23,114.89c0.51,0.36,1.1.06,1.64,0.18a20.09,20.09,0,0,1-3.63.52c-1.78.27-3.56,0.5-5.32,0.9a2.57,2.57,0,0,1-.55,0,10.26,10.26,0,0,0-1.94.47c-1.24.32-2.47,0.65-3.71,1a1.34,1.34,0,0,0-.5.17,1.35,1.35,0,0,1-.62,0c-0.35,0-.25-0.24-0.12-0.44a22.83,22.83,0,0,1,4-1.21c2-.58,4-0.83,6-1.21,0.88-.17,1.77-0.23,2.64-0.4a6.08,6.08,0,0,1,1.33-.2A1,1,0,0,1,199.23,114.89Z" transform="translate(-2.29 -2.9)"/>
<path class="106648f0-07b8-408a-875b-78ab70f96fab" d="M72.49,93.06c-0.2.18-.69-0.3-0.71,0.3a0.62,0.62,0,0,1-.73,0c-1.78-.58-3.46-1.42-5.2-2.08l-3-1.12a3.17,3.17,0,0,0-.79-0.21A1.26,1.26,0,0,1,61,89.26c0-.1-0.41-0.23,0-0.29,0.17,0,.35,0,0.52,0,2.75,0.81,5.36,2,8,3.06C70.54,92.37,71.52,92.71,72.49,93.06Z" transform="translate(-2.29 -2.9)"/>
<path class="7dd838f2-6482-4a1c-93b4-e1b5a3581591" d="M184.52,117.75c0,0.64.53,0.1,0.7,0.34-1.93.54-3.71,1.47-5.61,2.1-1.3.43-2.63,0.8-3.94,1.19,0-.35-0.29-0.3-0.51-0.35a0.75,0.75,0,0,1,.72-0.49,44.07,44.07,0,0,0,5.12-1.7l1.35-.63a10.52,10.52,0,0,1,1-.33A1.53,1.53,0,0,1,184.52,117.75Z" transform="translate(-2.29 -2.9)"/>
<path class="106648f0-07b8-408a-875b-78ab70f96fab" d="M64.34,122.47a0.34,0.34,0,0,1,.36-0.32,1.07,1.07,0,0,1,1.06,0c2.29,0.77,4.64,1.39,6.88,2.3a1.64,1.64,0,0,1,.41.23,0.46,0.46,0,0,1,.14.21c0,0.58-.43.16-0.61,0.29C69.88,124.14,67.09,123.36,64.34,122.47Z" transform="translate(-2.29 -2.9)"/>
<path class="f5a9d391-c305-42c3-8f26-60b2f46f2b27" d="M42.36,121.2c-0.1-.42.2-0.9-0.22-1.27A5.3,5.3,0,0,1,42.7,117a3.62,3.62,0,0,1,.56-0.7,3.44,3.44,0,0,1,3.89.2,0.42,0.42,0,0,1-.2.45c-0.43-.11-0.86-0.2-1.28-0.32A1.92,1.92,0,0,0,43,118.26C42.82,119.24,42.59,120.22,42.36,121.2Z" transform="translate(-2.29 -2.9)"/>
<path class="d0b87acb-1386-4986-ab05-e8310ddc03cb" d="M46.95,117a0.37,0.37,0,0,1,.21-0.35,1.22,1.22,0,0,1,1.18.15,6.65,6.65,0,0,1,1.93,1c0.14,0.6-.37.16-0.5,0.32Z" transform="translate(-2.29 -2.9)"/>
<path class="6c9bdf59-a640-45aa-b2d7-fb5bac6f8614" d="M139.93,100.19c0.1,0.53.55,0.23,0.82,0.34a1.75,1.75,0,0,1-2.09.29c0.25-.3.66,0,1.05-0.32h-2.35Z" transform="translate(-2.29 -2.9)"/>
<path class="aa2122e0-5815-48af-a140-66b75bc12969" d="M160.17,127.09a0.09,0.09,0,0,1,.11,0,0.3,0.3,0,0,1-.32.35,6,6,0,0,1-3-.18l2.17,0.12A1.42,1.42,0,0,0,160.17,127.09Z" transform="translate(-2.29 -2.9)"/>
<path class="e8cbdff0-293a-4af6-bb6a-89a8076a0c56" d="M87.1,97.5H85.2c-0.25,0-.56.08-0.62-0.31Z" transform="translate(-2.29 -2.9)"/>
<path class="7dd838f2-6482-4a1c-93b4-e1b5a3581591" d="M189.43,117c0.55-.56,1.28-0.34,1.94-0.47A6.92,6.92,0,0,1,189.43,117Z" transform="translate(-2.29 -2.9)"/>
<path class="e8cbdff0-293a-4af6-bb6a-89a8076a0c56" d="M91.16,98a1.92,1.92,0,0,1-1.51-.28A3.69,3.69,0,0,1,91.16,98Z" transform="translate(-2.29 -2.9)"/>
<path class="6c9bdf59-a640-45aa-b2d7-fb5bac6f8614" d="M142.46,99.89c-0.41.56-1,.23-1.5,0.29A5.16,5.16,0,0,1,142.46,99.89Z" transform="translate(-2.29 -2.9)"/>
<path class="7072d1ee-3f42-4e33-87d5-fada98354a50" d="M184.52,117.75l-1.12.27a1,1,0,0,1,.16-1,20.27,20.27,0,0,0,1.69-7.9A32.73,32.73,0,0,0,184.08,99c-0.76-2.7-1.73-5.32-3.86-7.31a8.19,8.19,0,0,1-1.57-1.31,3.12,3.12,0,0,1,1.68-.55,39.71,39.71,0,0,1,4.63-.35c4-.27,8-0.11,12-0.14a3.39,3.39,0,0,1,.54.08A2.76,2.76,0,0,1,199,90.63a15,15,0,0,1,2.76,5.79,24,24,0,0,1,.65,8.29,15.68,15.68,0,0,1-2.73,8,5.37,5.37,0,0,1-2.47,2.22,10,10,0,0,1-2.61.48c-2.24.47-4.51,0.77-6.72,1.42C186.78,117.21,185.65,117.52,184.52,117.75Z" transform="translate(-2.29 -2.9)"/>
<path class="7072d1ee-3f42-4e33-87d5-fada98354a50" d="M199.23,114.89h-0.79a0.91,0.91,0,0,1,.42-0.79,15.27,15.27,0,0,0,3.51-7.79,23.75,23.75,0,0,0-.05-8.15,16.8,16.8,0,0,0-3-7.53,0.86,0.86,0,0,1-.33-1,0.77,0.77,0,0,1,.68-0.13c1.34,0.23,2.71.11,4,.38h0c0.81,0.39,1.7.49,2.53,0.8a27,27,0,0,1,6.28,2.85,13.82,13.82,0,0,1,4.14,4,10.44,10.44,0,0,1,1.52,4.91,27.45,27.45,0,0,1-2.91,14.5,14.71,14.71,0,0,1-5,6.17,1,1,0,0,1-1,.34c-1.15-1.65-2.27-3.33-3.46-5a14,14,0,0,0-3-3.14A4,4,0,0,0,199.23,114.89Z" transform="translate(-2.29 -2.9)"/>
<path class="7072d1ee-3f42-4e33-87d5-fada98354a50" d="M217.09,137l-7.59-13c0.71-.74,1.62-1.22,2.36-1.94a20.66,20.66,0,0,0,4.66-7.6,28.93,28.93,0,0,0,1.71-7.11,19.69,19.69,0,0,0-.34-7.43,0.68,0.68,0,0,1,0-.74,42.74,42.74,0,0,1,3.8,5.94c1.54,2.52,3,5.09,4.47,7.65a1.11,1.11,0,0,1,.07.3,1.7,1.7,0,0,0,.36.86A13.11,13.11,0,0,1,228,121.5a20.56,20.56,0,0,1-3.11,9.25,14.42,14.42,0,0,1-5.46,5.44A22.09,22.09,0,0,1,217.09,137Z" transform="translate(-2.29 -2.9)"/>
<path class="7072d1ee-3f42-4e33-87d5-fada98354a50" d="M228.14,116.5a1.45,1.45,0,0,1,.69.91c1.75,3.18,3.79,6.21,5.42,9.46a5.45,5.45,0,0,1,.18,4.89c-0.79,1.84-1.44,3.75-2.17,5.62a8.66,8.66,0,0,1-5.35,5.22,5.56,5.56,0,0,1-5.47-1.18c-1-.88-1.94-1.85-3-2.65a4,4,0,0,1-1.15-1.57,0.68,0.68,0,0,1,.41-0.21,11,11,0,0,0,5.88-4,19.77,19.77,0,0,0,3.95-7.83,17.92,17.92,0,0,0,.51-7.57A1.22,1.22,0,0,1,228.14,116.5Z" transform="translate(-2.29 -2.9)"/>
<path class="815a80a3-cb8f-424a-aaa0-861f9ac4111a" d="M198.89,89.76l-0.29-.26a19.38,19.38,0,0,1,5.06.41c-1.26-.09-2.53-0.17-3.79-0.28A1.62,1.62,0,0,0,198.89,89.76Z" transform="translate(-2.29 -2.9)"/>
<path class="815a80a3-cb8f-424a-aaa0-861f9ac4111a" d="M206.19,90.7a6.24,6.24,0,0,1-2.53-.8A9.24,9.24,0,0,1,206.19,90.7Z" transform="translate(-2.29 -2.9)"/><path class="7072d1ee-3f42-4e33-87d5-fada98354a50" d="M42.84,117l-0.7,3c-0.23,2.47-1.91,4.27-2.94,6.38-0.48,1-1.08,1.9-1.63,2.85a1.86,1.86,0,0,1-1.61-.44,28.71,28.71,0,0,1-10-8.74,25.47,25.47,0,0,1-4.86-11.69,14.83,14.83,0,0,1,.3-6.19,6,6,0,0,0,.5-1.23,26.17,26.17,0,0,1,8.06-7.15,31.48,31.48,0,0,1,5.51-2.58,1.26,1.26,0,0,0,.31-0.24L39.59,90a1.8,1.8,0,0,1,.76-0.1c0.33,0.29,0,.48-0.13.65A14,14,0,0,0,37.47,97a24.79,24.79,0,0,0-.23,8.07,20.67,20.67,0,0,0,3,8.81,14.61,14.61,0,0,0,2,2.4A2,2,0,0,1,42.84,117Z" transform="translate(-2.29 -2.9)"/>
<path class="7072d1ee-3f42-4e33-87d5-fada98354a50" d="M19.62,104.66a15.54,15.54,0,0,1,1.11-2.09,0.59,0.59,0,0,1,.22.76,17.76,17.76,0,0,0,.67,8.34,27.79,27.79,0,0,0,4.46,8.84,29.29,29.29,0,0,0,10.4,8.66,0.79,0.79,0,0,1,.66.68,5.32,5.32,0,0,1-.77,1.52c-0.86,1.58-1.77,3.14-2.64,4.71a6,6,0,0,1-1.58,1.73,12.16,12.16,0,0,1-2.1,1.62,3.32,3.32,0,0,1-2.6-.29,18.73,18.73,0,0,1-6.35-4,22.69,22.69,0,0,1-6-8.52A12,12,0,0,1,14.6,118a2.15,2.15,0,0,0,.1-0.46,19.14,19.14,0,0,1,1.28-3.5c1.16-3,2.36-6,3.54-9A2.56,2.56,0,0,0,19.62,104.66Z" transform="translate(-2.29 -2.9)"/>
<path class="7072d1ee-3f42-4e33-87d5-fada98354a50" d="M10.29,129a12.24,12.24,0,0,0,1.09-2.88c0.8-2.11,1.55-4.24,2.33-6.35a0.53,0.53,0,0,1,.17-0.15A0.4,0.4,0,0,1,14,120c-0.43,4.51,1.25,8.35,3.87,11.85a22.07,22.07,0,0,0,8.46,7,7.71,7.71,0,0,0,2.7.82,0.59,0.59,0,0,1,.49.21,20.34,20.34,0,0,1-8.78,3.71,6.52,6.52,0,0,1-6.4-2.36,22.85,22.85,0,0,1-3.88-6.05,6.93,6.93,0,0,1-.32-5.33A2.09,2.09,0,0,0,10.29,129Z" transform="translate(-2.29 -2.9)"/>
<path class="7072d1ee-3f42-4e33-87d5-fada98354a50" d="M92.64,98.65a30.48,30.48,0,0,1,4.74.64,44.57,44.57,0,0,1,5.82,1.25,14.72,14.72,0,0,1,3.68,1.4,1,1,0,0,1-.49.85,13.66,13.66,0,0,0-3.3,6.11,20.64,20.64,0,0,0-.71,7.74,15.12,15.12,0,0,0,3.62,9,0.83,0.83,0,0,1,.41.93,27.72,27.72,0,0,1-4,1.29,23.53,23.53,0,0,1-5.83.1q-2.72-.14-5.44-0.1c-0.18,0-.37,0-0.55,0a8.13,8.13,0,0,1-2.54-4.09,24.32,24.32,0,0,1-1.2-7,36,36,0,0,1,.52-8.23,21.11,21.11,0,0,1,2.38-6.74A7.88,7.88,0,0,1,92.64,98.65Z" transform="translate(-2.29 -2.9)"/>
<path class="7072d1ee-3f42-4e33-87d5-fada98354a50" d="M79.21,96.21a30.15,30.15,0,0,0,5.53,1.53c1.36,0.17,2.74.3,4.12,0.41a21.74,21.74,0,0,1,3,.34,1.07,1.07,0,0,1-.46.79,16.07,16.07,0,0,0-3.61,6.84,31.22,31.22,0,0,0-1.15,7.7,29.76,29.76,0,0,0,.81,8.59,12.19,12.19,0,0,0,2.13,4.71,0.54,0.54,0,0,1,.19.69,48.51,48.51,0,0,1-8.38-.42,30.8,30.8,0,0,1-7.42-2.3,8.13,8.13,0,0,1-1.91-3.84,26.09,26.09,0,0,1,.17-12.81,29.43,29.43,0,0,1,3.2-8,17.91,17.91,0,0,1,3.34-4A0.93,0.93,0,0,1,79.21,96.21Z" transform="translate(-2.29 -2.9)"/>
<path class="7072d1ee-3f42-4e33-87d5-fada98354a50" d="M107.52,102.14a62,62,0,0,1,7.21,3.24,18.68,18.68,0,0,1,2.82,2.27,3.59,3.59,0,0,0,2.74,1c0.49,2.66.78,5.34,1,8a24.35,24.35,0,0,1-.36,6.26,29.33,29.33,0,0,0-9.23,1.87q-2.11.69-4.19,1.44a1.06,1.06,0,0,1-1.34-.72,14.94,14.94,0,0,1-3.63-9.92,20.53,20.53,0,0,1,.81-6.93c0.77-2.37,1.73-4.64,3.77-6.25A1.59,1.59,0,0,1,107.52,102.14Z" transform="translate(-2.29 -2.9)"/>
<path class="7072d1ee-3f42-4e33-87d5-fada98354a50" d="M133.76,125.92l-6.13-1.75c-0.38-.11-0.76-0.18-1.14-0.26a37.13,37.13,0,0,0-5.07-1,1.31,1.31,0,0,1-.15-1.2,24.46,24.46,0,0,0,0-6.67,54.7,54.7,0,0,0-.75-5.85,0.47,0.47,0,0,1,.11-0.44c3.51-1.25,6.21-3.81,9.28-5.77a10,10,0,0,1,3.06-1.28,6.87,6.87,0,0,1,2,2.86,23.49,23.49,0,0,1,2,9.41,24.25,24.25,0,0,1-.75,7.57,11,11,0,0,1-1.87,3.79A2.25,2.25,0,0,1,133.76,125.92Z" transform="translate(-2.29 -2.9)"/>
<path class="7072d1ee-3f42-4e33-87d5-fada98354a50" d="M138.67,100.82a5.13,5.13,0,0,0,2.09-.29,23,23,0,0,0,6.1-1,2,2,0,0,1,.85-0.11,1.79,1.79,0,0,1,1.3.94,17,17,0,0,1,2.79,5.72,31.52,31.52,0,0,1,1.31,10,18.5,18.5,0,0,1-1.32,6.94,6,6,0,0,1-1.89,2.57,13.75,13.75,0,0,0-6.22.76c-0.92.26-1.86,0.48-2.79,0.72-2.22.5-4.27-.34-6.35-0.86a1,1,0,0,1-.3-0.23,1,1,0,0,1,.28-0.55,13.18,13.18,0,0,0,2.38-6.18,28.5,28.5,0,0,0-.54-11.42,14.19,14.19,0,0,0-2.32-5.31,0.86,0.86,0,0,1-.3-0.92,4,4,0,0,1,1.93-.43A28.56,28.56,0,0,1,138.67,100.82Z" transform="translate(-2.29 -2.9)"/>
<path class="7072d1ee-3f42-4e33-87d5-fada98354a50" d="M50.27,117.75c-0.81-.33-1.63-0.66-2.43-1a1.47,1.47,0,0,0-.68-0.15,3.7,3.7,0,0,0-3.87-.1c-0.75.17-1.08-.43-1.47-0.86a16.69,16.69,0,0,1-3.58-6.6,24.26,24.26,0,0,1-1.08-7.31,19.47,19.47,0,0,1,2.25-9.81,9.21,9.21,0,0,1,2-2.32,41,41,0,0,1,13.53-1.34,27.39,27.39,0,0,1,5.12.71,1.84,1.84,0,0,0,1,.28l1.12,0.51a0.54,0.54,0,0,1-.38.54c-2.46,1.4-3.81,3.7-4.95,6.16a27.45,27.45,0,0,0-2.08,6.85,24.47,24.47,0,0,0,.67,12.6,10.16,10.16,0,0,0,1.27,2.53,1.71,1.71,0,0,1,.41.84c0,0.19-.06.31-0.28,0.2L51.08,118C50.81,117.94,50.54,117.84,50.27,117.75Z" transform="translate(-2.29 -2.9)"/>
<path class="7072d1ee-3f42-4e33-87d5-fada98354a50" d="M166.49,123.7a37.94,37.94,0,0,1-4.87,2.57,6.93,6.93,0,0,1-1.77.66h-0.17a15.31,15.31,0,0,1-3.3-.17,16.35,16.35,0,0,0-2.68-.51,30.43,30.43,0,0,1-3-.61,0.53,0.53,0,0,1,.14-0.64,14.32,14.32,0,0,0,2.37-7.32,27,27,0,0,0,0-5.43,29.63,29.63,0,0,0-1.57-7.31,14.55,14.55,0,0,0-2.76-5,0.58,0.58,0,0,1-.19-0.77c1.47-.45,2.93-0.92,4.41-1.35s3.1-.91,4.66-1.3a20.54,20.54,0,0,1,4.25-.75,1.48,1.48,0,0,1,.93.54,18.8,18.8,0,0,1,4.87,7.92,27.23,27.23,0,0,1,1.65,10.3,17.26,17.26,0,0,1-2,7.89A3.19,3.19,0,0,1,166.49,123.7Z" transform="translate(-2.29 -2.9)"/>
<path class="7072d1ee-3f42-4e33-87d5-fada98354a50" d="M177.71,90.68a4.83,4.83,0,0,1,3.13,2.2,18.44,18.44,0,0,1,2.93,6.42,30.94,30.94,0,0,1,1.19,8,20.65,20.65,0,0,1-2.5,11,31,31,0,0,1-6.58,2.37,5.18,5.18,0,0,0-.71.3,23.62,23.62,0,0,0-3.25.81,27.42,27.42,0,0,0-4.16,1.29c-0.53-.27-0.12-0.59,0-0.83a15.4,15.4,0,0,0,1.26-3.73,24.39,24.39,0,0,0,.46-6.74,32.8,32.8,0,0,0-1.57-7.63,20.77,20.77,0,0,0-4.62-7.82,0.61,0.61,0,0,1-.27-0.75l1-.32a21.74,21.74,0,0,0,9.29-2.54A24.68,24.68,0,0,1,177.71,90.68Z" transform="translate(-2.29 -2.9)"/>
<path class="011e9c74-7102-4ae6-82d6-323c284c7b95" d="M156.39,126.77c1.11-.11,2.19.25,3.3,0.17A7,7,0,0,1,156.39,126.77Z" transform="translate(-2.29 -2.9)"/>
<path class="7072d1ee-3f42-4e33-87d5-fada98354a50" d="M78.56,96a21.12,21.12,0,0,0-3.42,4.21,29.8,29.8,0,0,0-3.26,8.17,31.71,31.71,0,0,0-.89,8.26,16.52,16.52,0,0,0,2,7.8,1.38,1.38,0,0,1,.09.38c-2.62-1-5.28-1.81-7.95-2.62a1.62,1.62,0,0,0-.39,0,19.3,19.3,0,0,0-3-1.08c-1.16-.45-2.36-0.8-3.54-1.19a7.49,7.49,0,0,1-2.42-3.53,18.8,18.8,0,0,1-1.3-6.38,30,30,0,0,1,.51-7,26.11,26.11,0,0,1,3.89-9.75A9,9,0,0,1,62.93,90c2.64,0.86,5.15,2.06,7.75,3,0.36,0.14.73,0.25,1.1,0.38A53,53,0,0,1,78.56,96Z" transform="translate(-2.29 -2.9)"/>
<text class="a5374616-14c6-4548-a95a-556b3a55f2a4" transform="translate(1.08 85.35)">CPU4</text>
<path class="40cae442-98da-49a1-936a-fb4eb1fe6cb6" d="M177.7,167.12a18,18,0,0,1,5.83-1c4.76-.32,9.52-0.15,14.28-0.16a24.57,24.57,0,0,1,6.33.57,34.45,34.45,0,0,1,8.18,3.36,17.42,17.42,0,0,1,4.59,4.12c3.11,3.66,5.24,8,7.65,12.05q4.86,8.25,9.61,16.57a7.66,7.66,0,0,1,1.29,4.36,10.34,10.34,0,0,1-.84,2.59,40.24,40.24,0,0,1-2.2,5.73,9,9,0,0,1-5.91,5,5.68,5.68,0,0,1-4.84-1c-1.94-1.51-4-2.95-5.24-5.2-1.11-2-2.28-4-3.42-6a125.41,125.41,0,0,0-6.94-11.19,19.28,19.28,0,0,0-3.54-4,3.2,3.2,0,0,0-1.68-.75,4,4,0,0,1-1.61,0c-0.22-.45.13-0.49,0.41-0.53a4.42,4.42,0,0,1,3.93,1.17,20.45,20.45,0,0,1,2.54,2.91c1.07,1.53,2.18,3,3.14,4.64,0.13,0.19.24,0.39,0.38,0.58,1.5,2.37,2.92,4.79,4.28,7.24,1.08,1.95,2.28,3.82,3.29,5.8l0.21,0.27a6.65,6.65,0,0,0,2,2.12,10,10,0,0,1,1.63,1.49,6,6,0,0,0,8.13.33,11.83,11.83,0,0,0,3.26-4.65c0.72-1.89,1.38-3.81,2.12-5.7a4.7,4.7,0,0,0-.43-3.73,23.15,23.15,0,0,0-1.45-2.71c-1.44-2.35-2.78-4.77-4.2-7.13a2.17,2.17,0,0,0-.42-0.57c-0.57-1.23-1.25-2.39-1.92-3.57-2.38-4-4.7-8.08-7.11-12.09a11.1,11.1,0,0,0-1.25-1.72c-0.47-.52-0.76-1.19-1.28-1.67a17.83,17.83,0,0,0-8.06-5.85c-0.76-.29-1.49-0.67-2.28-0.9a20.33,20.33,0,0,0-2.47-.74l-0.24-.07a45.72,45.72,0,0,0-4.82-.36,5.15,5.15,0,0,0-1.23-.14c-2.61,0-5.21,0-7.82,0-3,0-5.93.3-8.9,0.5a7.81,7.81,0,0,0-1.84.43,0.72,0.72,0,0,1-.52,0C178.32,167.11,177.84,167.35,177.7,167.12Z" transform="translate(-2.29 -2.9)"/>
<path class="11f35835-4b92-4d11-9d90-bdaf6eb87c3f" d="M42.36,198.25a9.06,9.06,0,0,1-1.53,3.27c-2.25,4-4.53,8-6.77,12a7.08,7.08,0,0,1-1.65,1.76,21.87,21.87,0,0,1-6.09,4.15,22.55,22.55,0,0,1-5.87,1.8,7.32,7.32,0,0,1-6.76-2.88,21.18,21.18,0,0,1-4.29-7.56,7.07,7.07,0,0,1,.32-4.3c0.07-.22.15-0.44,0.23-0.66s0.31,0,.41.12a1.36,1.36,0,0,1,0,1c-0.79,2.09-.25,4,0.64,5.94a21,21,0,0,0,3.76,5.52c2,2.12,4.48,2.49,7.19,1.77a21.28,21.28,0,0,0,7.41-3.39c0.21-.17.43-0.33,0.64-0.49,0.76-.65,1.58-1.21,2.32-1.89,1.46-1.33,2.14-3.16,3.13-4.79,0.54-.9,1-1.84,1.57-2.73,0.18-.29.32-0.61,0.47-0.91,1.23-2.2,2.42-4.42,3.71-6.58a5.88,5.88,0,0,0,.65-1.93c0.05-.26,0-0.63.48-0.54A1.76,1.76,0,0,1,42.36,198.25Z" transform="translate(-2.29 -2.9)"/>
<path class="d4365223-9885-4152-b504-d74f7a87309d" d="M125.21,201.13a17.85,17.85,0,0,0-7.46-.41,52.91,52.91,0,0,0-6.32,1.74c-2.77.95-5.53,2-8.32,2.86a13.7,13.7,0,0,1-5.33.27c-3.89-.32-7.78-0.16-11.67-0.22a29,29,0,0,1-10.63-2c-1-.39-1.93-0.74-2.89-1.11a2.64,2.64,0,0,0,.7-0.39,3.62,3.62,0,0,1,.92.24c1.81,0.58,3.54,1.37,5.39,1.82a38.29,38.29,0,0,0,6.89.79c1.1,0.06,2.21,0,3.32,0,0.28,0,.56,0,0.84,0,2.89-.13,5.78.08,8.67,0.17a15.77,15.77,0,0,0,6.15-1.14,6.48,6.48,0,0,1,.74-0.26,5.6,5.6,0,0,0,.87-0.31c2.06-.64,4.05-1.47,6.14-2,2.53-.69,5.05-1.48,7.73-1.32,0.18,0,.36,0,0.54,0a26,26,0,0,1,4.65.82,0.43,0.43,0,0,1,.42.4A1.43,1.43,0,0,1,125.21,201.13Z" transform="translate(-2.29 -2.9)"/>
<path class="e8cbdff0-293a-4af6-bb6a-89a8076a0c56" d="M92.18,175c2,0.33,4.09.56,6.11,1,1.36,0.28,2.71.53,4.07,0.83a33.53,33.53,0,0,1,5.72,2c2,0.83,3.91,1.76,5.88,2.61a16.43,16.43,0,0,1,3.83,2.81,3.47,3.47,0,0,0,4.06.45,43.74,43.74,0,0,0,6-3.91,14,14,0,0,1,4.42-2.42,29.69,29.69,0,0,1,5.1-.81,12.87,12.87,0,0,1,2.48,0,1.47,1.47,0,0,1-1.11.52,38.29,38.29,0,0,1-4,.55,4,4,0,0,0-.92.21,2.93,2.93,0,0,1-.75.1,13.24,13.24,0,0,0-4.48,2.24,59.55,59.55,0,0,1-5.53,3.79,14.18,14.18,0,0,1-2.4,1,2.09,2.09,0,0,1-.47,0,3.84,3.84,0,0,1-3.12-1.27c-2.08-2.06-4.73-3.1-7.33-4.24-0.77-.34-1.53-0.71-2.32-1l-0.69-.27c-4.5-1.85-9.26-2.54-14-3.19a0.93,0.93,0,0,1-.7-0.28A0.43,0.43,0,0,1,92.18,175Z" transform="translate(-2.29 -2.9)"/>
<path class="ebb7de89-77d4-48ae-876e-cddb664f23c6" d="M10.29,206.08a0.34,0.34,0,0,0-.33-0.21c1.39-4.53,3.19-8.92,4.88-13.34,1.43-3.74,3-7.45,4.45-11.17,0.3-.16.38,0.05,0.46,0.27a4.75,4.75,0,0,1-.6,2.1q-2.19,5.44-4.33,10.91c-0.31.69-.53,1.41-0.81,2.11-1,2.66-2,5.3-2.91,8A1.6,1.6,0,0,1,10.29,206.08Z" transform="translate(-2.29 -2.9)"/>
<path class="eb52c650-dd22-43e5-86a4-b661f7729564" d="M35.41,167.62a77.62,77.62,0,0,1,9.27-2.22A44.28,44.28,0,0,1,57.31,165a18.15,18.15,0,0,1,4.25,1,0.38,0.38,0,0,1-.1.11c-0.19.13-.58-0.08-0.59,0.35a12.15,12.15,0,0,1-1.84-.39,38.4,38.4,0,0,0-9.88-.48,51.64,51.64,0,0,0-7.6,1.27,11.11,11.11,0,0,0-1.17.2c-1.58.26-3.05,1-4.67,1C35.49,168,35.25,167.95,35.41,167.62Z" transform="translate(-2.29 -2.9)"/>
<path class="5d123168-c9f6-4e42-95bc-535021d56f2f" d="M142.46,176.94a39.25,39.25,0,0,0,7-1.56c2.8-.78,5.58-1.67,8.41-2.35,1.86-.45,3.74-0.71,5.62-1a0.93,0.93,0,0,1,.5.4,1.43,1.43,0,0,1-1,.41,4.72,4.72,0,0,0-1.11.15,62.21,62.21,0,0,0-9.52,2.32c-1.2.36-2.41,0.73-3.62,1a11.16,11.16,0,0,1-1.13.32,26.13,26.13,0,0,1-5.22,1c-0.57,0-1.15.09-1.72,0.08-0.31-.1-0.86.13-0.75-0.55a2.28,2.28,0,0,1,1,0A4.6,4.6,0,0,0,142.46,176.94Z" transform="translate(-2.29 -2.9)"/>
<path class="7ad4b5be-2109-4a2a-a429-ef3c30a477df" d="M35.41,167.62a0.34,0.34,0,0,0,.37.32,0.73,0.73,0,0,1-.68.55,34.38,34.38,0,0,0-7.67,4.13,29.08,29.08,0,0,0-4.29,4A12.09,12.09,0,0,0,22,178c-0.37.6-.83,1.14-1.16,1.76-0.26.47-.49,1-0.73,1.44a0.7,0.7,0,0,1-.48.54,0.34,0.34,0,0,0-.32-0.36c1-2.92,3.05-5.12,5.22-7.21A30.1,30.1,0,0,1,35.41,167.62Z" transform="translate(-2.29 -2.9)"/>
<path class="3bf490e7-b0c6-4bb0-9d69-24fa50acb671" d="M156.91,204.33a37.08,37.08,0,0,1-4.91-.81c-2.39-.4-4.76-0.71-7.14.13-1,.36-2.11.54-3.17,0.8a3.79,3.79,0,0,1-1.49,0,0.87,0.87,0,0,1,.61-0.49c2.56-.68,5.05-1.65,7.76-1.66a5.11,5.11,0,0,1,1.33.15c0.27,0,.54,0,0.8,0a35.06,35.06,0,0,0,4.26.77,5.73,5.73,0,0,1,1.46.33,9.52,9.52,0,0,0,3.17.26,0.81,0.81,0,0,1,.27,0,0.39,0.39,0,0,1,.34.36,4.53,4.53,0,0,1-2.82.18A3,3,0,0,1,156.91,204.33Z" transform="translate(-2.29 -2.9)"/>
<path class="1a17a273-1ec0-42bd-92e7-cb8da1465d5e" d="M92.18,175l-0.16.43a0.38,0.38,0,0,1-.22.15c-4.24-.29-8.49-0.5-12.5-2.13a3.63,3.63,0,0,0-.81-0.33c-2-.83-4-1.67-6.06-2.33a1.68,1.68,0,0,1-.76-0.39c-0.1-.18-0.13-0.35.13-0.38a1.44,1.44,0,0,1,.67.05A50.21,50.21,0,0,1,79,172.64c1.52,0.65,3.13,1,4.66,1.55a3.94,3.94,0,0,1,.92.06,2,2,0,0,0,1.35.23,3.67,3.67,0,0,1,1.16.08l2.55,0.18a8.42,8.42,0,0,0,1.51.28A2.4,2.4,0,0,1,92.18,175Z" transform="translate(-2.29 -2.9)"/>
<path class="6aa9e689-475e-4b14-8eb1-e4ece68f94bc" d="M160.17,204.14l-0.31-.15a24.61,24.61,0,0,1,2.82-1.34c1.23-.68,2.48-1.35,3.74-2,0.46-.22.91-0.47,1.37-0.69a42.05,42.05,0,0,1,7.47-2.05c0.25,0.08.59,0.09,0.42,0.51a39.18,39.18,0,0,0-12.1,4.55,6.87,6.87,0,0,1-3.28,1.18S160.19,204.2,160.17,204.14Z" transform="translate(-2.29 -2.9)"/>
<path class="e9815cd0-8dfa-418e-89de-62b498a47abf" d="M140.88,204.13l-0.63.32h1.44a9.83,9.83,0,0,1-6.07-.34c-2.3-.74-4.64-1.37-7-2-1.15-.33-2.3-0.63-3.44-0.95a2.36,2.36,0,0,0,1.28-.17,2.3,2.3,0,0,1,1.59.16c1.91,0.52,3.81,1.13,5.71,1.68a1.81,1.81,0,0,1,.5.12c1.94,0.55,3.83,1.39,5.92,1A0.67,0.67,0,0,1,140.88,204.13Z" transform="translate(-2.29 -2.9)"/>
<path class="8cbc45de-edc7-48ef-92ae-3b37218ce956" d="M64.34,199.52c-3-1-6.07-2-9.11-2.91-1.49-.46-3-0.64-4.54-1.12a8,8,0,0,0-.93-0.37c0.2-.16.45-0.25,0.65-0.42,2.13,0.52,4.27,1,6.35,1.64,0.49,0.18,1,.31,1.49.45,2,0.57,4,1.29,5.92,1.93a0.81,0.81,0,0,1,.51.35C64.74,199.36,64.46,199.38,64.34,199.52Z" transform="translate(-2.29 -2.9)"/>
<path class="9cf4cdf6-a252-49e9-be99-e3d436ab9386" d="M164,172.37c-0.22,0-.49,0-0.51-0.33a46.41,46.41,0,0,0,6.13-1.17,45.24,45.24,0,0,0,5.05-2.34l3-1.42,0.67,0.08-0.17.24a1.14,1.14,0,0,1-.55.48c-2,.8-3.81,1.81-5.67,2.79a22.5,22.5,0,0,1-7.07,1.84A1,1,0,0,1,164,172.37Z" transform="translate(-2.29 -2.9)"/>
<path class="f5827051-2f4d-4291-a7ba-63df334e729f" d="M199.23,191.94c0.51,0.36,1.1.06,1.64,0.18a20.09,20.09,0,0,1-3.63.52c-1.78.27-3.56,0.5-5.32,0.9a2.57,2.57,0,0,1-.55,0,10.26,10.26,0,0,0-1.94.47c-1.24.32-2.47,0.65-3.71,1a1.34,1.34,0,0,0-.5.17,1.35,1.35,0,0,1-.62,0c-0.35,0-.25-0.24-0.12-0.44a22.83,22.83,0,0,1,4-1.21c2-.58,4-0.83,6-1.21,0.88-.17,1.77-0.23,2.64-0.4a6.08,6.08,0,0,1,1.33-.2A1,1,0,0,1,199.23,191.94Z" transform="translate(-2.29 -2.9)"/>
<path class="106648f0-07b8-408a-875b-78ab70f96fab" d="M72.49,170.11c-0.2.18-.69-0.3-0.71,0.3a0.62,0.62,0,0,1-.73,0c-1.78-.58-3.46-1.42-5.2-2.08l-3-1.12A3.17,3.17,0,0,0,62.1,167a1.26,1.26,0,0,1-1.07-.65c0-.1-0.41-0.23,0-0.29,0.17,0,.35,0,0.52,0,2.75,0.81,5.36,2,8,3.06C70.54,169.43,71.52,169.76,72.49,170.11Z" transform="translate(-2.29 -2.9)"/>
<path class="7dd838f2-6482-4a1c-93b4-e1b5a3581591" d="M184.52,194.8c0,0.64.53,0.1,0.7,0.34-1.93.54-3.71,1.47-5.61,2.1-1.3.43-2.63,0.8-3.94,1.19,0-.35-0.29-0.3-0.51-0.35a0.75,0.75,0,0,1,.72-0.49,44.07,44.07,0,0,0,5.12-1.7l1.35-.63a10.52,10.52,0,0,1,1-.33A1.53,1.53,0,0,1,184.52,194.8Z" transform="translate(-2.29 -2.9)"/>
<path class="106648f0-07b8-408a-875b-78ab70f96fab" d="M64.34,199.52a0.34,0.34,0,0,1,.36-0.32,1.07,1.07,0,0,1,1.06,0c2.29,0.77,4.64,1.39,6.88,2.3a1.64,1.64,0,0,1,.41.23,0.46,0.46,0,0,1,.14.21c0,0.58-.43.16-0.61,0.29C69.88,201.2,67.09,200.42,64.34,199.52Z" transform="translate(-2.29 -2.9)"/>
<path class="f5a9d391-c305-42c3-8f26-60b2f46f2b27" d="M42.36,198.25c-0.1-.42.2-0.9-0.22-1.27a5.3,5.3,0,0,1,.55-2.94,3.62,3.62,0,0,1,.56-0.7,3.44,3.44,0,0,1,3.89.2,0.42,0.42,0,0,1-.2.45c-0.43-.11-0.86-0.2-1.28-0.32A1.92,1.92,0,0,0,43,195.32C42.82,196.3,42.59,197.27,42.36,198.25Z" transform="translate(-2.29 -2.9)"/>
<path class="d0b87acb-1386-4986-ab05-e8310ddc03cb" d="M46.95,194a0.37,0.37,0,0,1,.21-0.35,1.22,1.22,0,0,1,1.18.15,6.65,6.65,0,0,1,1.93,1c0.14,0.6-.37.16-0.5,0.32Z" transform="translate(-2.29 -2.9)"/>
<path class="6c9bdf59-a640-45aa-b2d7-fb5bac6f8614" d="M139.93,177.24c0.1,0.53.55,0.23,0.82,0.34a1.75,1.75,0,0,1-2.09.29c0.25-.3.66,0,1.05-0.32h-2.35Z" transform="translate(-2.29 -2.9)"/>
<path class="aa2122e0-5815-48af-a140-66b75bc12969" d="M160.17,204.14a0.09,0.09,0,0,1,.11,0,0.3,0.3,0,0,1-.32.35,6,6,0,0,1-3-.18l2.17,0.12A1.42,1.42,0,0,0,160.17,204.14Z" transform="translate(-2.29 -2.9)"/>
<path class="e8cbdff0-293a-4af6-bb6a-89a8076a0c56" d="M87.1,174.56H85.2c-0.25,0-.56.08-0.62-0.31Z" transform="translate(-2.29 -2.9)"/>
<path class="7dd838f2-6482-4a1c-93b4-e1b5a3581591" d="M189.43,194c0.55-.56,1.28-0.34,1.94-0.47A6.92,6.92,0,0,1,189.43,194Z" transform="translate(-2.29 -2.9)"/>
<path class="e8cbdff0-293a-4af6-bb6a-89a8076a0c56" d="M91.16,175a1.92,1.92,0,0,1-1.51-.28A3.69,3.69,0,0,1,91.16,175Z" transform="translate(-2.29 -2.9)"/>
<path class="6c9bdf59-a640-45aa-b2d7-fb5bac6f8614" d="M142.46,176.94c-0.41.56-1,.23-1.5,0.29A5.16,5.16,0,0,1,142.46,176.94Z" transform="translate(-2.29 -2.9)"/>
<path class="7072d1ee-3f42-4e33-87d5-fada98354a50" d="M184.52,194.8l-1.12.27a1,1,0,0,1,.16-1,20.27,20.27,0,0,0,1.69-7.9A32.73,32.73,0,0,0,184.08,176c-0.76-2.7-1.73-5.32-3.86-7.31a8.19,8.19,0,0,1-1.57-1.31,3.12,3.12,0,0,1,1.68-.55,39.71,39.71,0,0,1,4.63-.35c4-.27,8-0.11,12-0.14a3.39,3.39,0,0,1,.54.08,2.76,2.76,0,0,1,1.49,1.22,15,15,0,0,1,2.76,5.79,24,24,0,0,1,.65,8.29,15.68,15.68,0,0,1-2.73,8,5.37,5.37,0,0,1-2.47,2.22,10,10,0,0,1-2.61.48c-2.24.47-4.51,0.77-6.72,1.42C186.78,194.26,185.65,194.58,184.52,194.8Z" transform="translate(-2.29 -2.9)"/>
<path class="7072d1ee-3f42-4e33-87d5-fada98354a50" d="M199.23,191.94h-0.79a0.91,0.91,0,0,1,.42-0.79,15.27,15.27,0,0,0,3.51-7.79,23.75,23.75,0,0,0-.05-8.15,16.8,16.8,0,0,0-3-7.53,0.86,0.86,0,0,1-.33-1,0.77,0.77,0,0,1,.68-0.13c1.34,0.23,2.71.11,4,.38h0c0.81,0.39,1.7.49,2.53,0.8a27,27,0,0,1,6.28,2.85,13.82,13.82,0,0,1,4.14,4,10.44,10.44,0,0,1,1.52,4.91,27.45,27.45,0,0,1-2.91,14.5,14.71,14.71,0,0,1-5,6.17,1,1,0,0,1-1,.34c-1.15-1.65-2.27-3.33-3.46-5a14,14,0,0,0-3-3.14A4,4,0,0,0,199.23,191.94Z" transform="translate(-2.29 -2.9)"/>
<path class="7072d1ee-3f42-4e33-87d5-fada98354a50" d="M217.09,214l-7.59-13c0.71-.74,1.62-1.22,2.36-1.94a20.66,20.66,0,0,0,4.66-7.6,28.93,28.93,0,0,0,1.71-7.11,19.69,19.69,0,0,0-.34-7.43,0.68,0.68,0,0,1,0-.74,42.74,42.74,0,0,1,3.8,5.94c1.54,2.52,3,5.09,4.47,7.65a1.11,1.11,0,0,1,.07.3,1.7,1.7,0,0,0,.36.86,13.11,13.11,0,0,1,1.37,7.63,20.56,20.56,0,0,1-3.11,9.25,14.42,14.42,0,0,1-5.46,5.44A22.09,22.09,0,0,1,217.09,214Z" transform="translate(-2.29 -2.9)"/>
<path class="7072d1ee-3f42-4e33-87d5-fada98354a50" d="M228.14,193.55a1.45,1.45,0,0,1,.69.91c1.75,3.18,3.79,6.21,5.42,9.46a5.45,5.45,0,0,1,.18,4.89c-0.79,1.84-1.44,3.75-2.17,5.62a8.66,8.66,0,0,1-5.35,5.22,5.56,5.56,0,0,1-5.47-1.18c-1-.88-1.94-1.85-3-2.65a4,4,0,0,1-1.15-1.57,0.68,0.68,0,0,1,.41-0.21,11,11,0,0,0,5.88-4,19.77,19.77,0,0,0,3.95-7.83,17.92,17.92,0,0,0,.51-7.57A1.22,1.22,0,0,1,228.14,193.55Z" transform="translate(-2.29 -2.9)"/><path class="815a80a3-cb8f-424a-aaa0-861f9ac4111a" d="M198.89,166.82l-0.29-.26a19.38,19.38,0,0,1,5.06.41c-1.26-.09-2.53-0.17-3.79-0.28A1.62,1.62,0,0,0,198.89,166.82Z" transform="translate(-2.29 -2.9)"/>
<path class="815a80a3-cb8f-424a-aaa0-861f9ac4111a" d="M206.19,167.75a6.24,6.24,0,0,1-2.53-.8A9.24,9.24,0,0,1,206.19,167.75Z" transform="translate(-2.29 -2.9)"/>
<path class="7072d1ee-3f42-4e33-87d5-fada98354a50" d="M42.84,194l-0.7,3c-0.23,2.47-1.91,4.27-2.94,6.38-0.48,1-1.08,1.9-1.63,2.85a1.86,1.86,0,0,1-1.61-.44,28.71,28.71,0,0,1-10-8.74,25.47,25.47,0,0,1-4.86-11.69,14.83,14.83,0,0,1,.3-6.19,6,6,0,0,0,.5-1.23,26.17,26.17,0,0,1,8.06-7.15,31.48,31.48,0,0,1,5.51-2.58,1.26,1.26,0,0,0,.31-0.24l3.82-.93a1.8,1.8,0,0,1,.76-0.1c0.33,0.29,0,.48-0.13.65a14,14,0,0,0-2.75,6.53,24.79,24.79,0,0,0-.23,8.07,20.67,20.67,0,0,0,3,8.81,14.61,14.61,0,0,0,2,2.4A2,2,0,0,1,42.84,194Z" transform="translate(-2.29 -2.9)"/>
<path class="7072d1ee-3f42-4e33-87d5-fada98354a50" d="M19.62,181.72a15.54,15.54,0,0,1,1.11-2.09,0.59,0.59,0,0,1,.22.76,17.76,17.76,0,0,0,.67,8.34,27.79,27.79,0,0,0,4.46,8.84,29.29,29.29,0,0,0,10.4,8.66,0.79,0.79,0,0,1,.66.68,5.32,5.32,0,0,1-.77,1.52c-0.86,1.58-1.77,3.14-2.64,4.71a6,6,0,0,1-1.58,1.73,12.16,12.16,0,0,1-2.1,1.62,3.32,3.32,0,0,1-2.6-.29,18.73,18.73,0,0,1-6.35-4,22.69,22.69,0,0,1-6-8.52,12,12,0,0,1-.51-8.54,2.15,2.15,0,0,0,.1-0.46,19.14,19.14,0,0,1,1.28-3.5c1.16-3,2.36-6,3.54-9A2.56,2.56,0,0,0,19.62,181.72Z" transform="translate(-2.29 -2.9)"/>
<path class="7072d1ee-3f42-4e33-87d5-fada98354a50" d="M10.29,206.08a12.24,12.24,0,0,0,1.09-2.88c0.8-2.11,1.55-4.24,2.33-6.35a0.53,0.53,0,0,1,.17-0.15A0.4,0.4,0,0,1,14,197c-0.43,4.51,1.25,8.35,3.87,11.85a22.07,22.07,0,0,0,8.46,7,7.71,7.71,0,0,0,2.7.82,0.59,0.59,0,0,1,.49.21,20.34,20.34,0,0,1-8.78,3.71,6.52,6.52,0,0,1-6.4-2.36,22.85,22.85,0,0,1-3.88-6.05,6.93,6.93,0,0,1-.32-5.33A2.09,2.09,0,0,0,10.29,206.08Z" transform="translate(-2.29 -2.9)"/>
<path class="7072d1ee-3f42-4e33-87d5-fada98354a50" d="M92.64,175.71a30.48,30.48,0,0,1,4.74.64,44.57,44.57,0,0,1,5.82,1.25,14.72,14.72,0,0,1,3.68,1.4,1,1,0,0,1-.49.85,13.66,13.66,0,0,0-3.3,6.11,20.64,20.64,0,0,0-.71,7.74,15.12,15.12,0,0,0,3.62,9,0.83,0.83,0,0,1,.41.93,27.72,27.72,0,0,1-4,1.29,23.53,23.53,0,0,1-5.83.1q-2.72-.14-5.44-0.1c-0.18,0-.37,0-0.55,0a8.13,8.13,0,0,1-2.54-4.09,24.32,24.32,0,0,1-1.2-7,36,36,0,0,1,.52-8.23,21.11,21.11,0,0,1,2.38-6.74A7.88,7.88,0,0,1,92.64,175.71Z" transform="translate(-2.29 -2.9)"/>
<path class="7072d1ee-3f42-4e33-87d5-fada98354a50" d="M79.21,173.26a30.15,30.15,0,0,0,5.53,1.53c1.36,0.17,2.74.3,4.12,0.41a21.74,21.74,0,0,1,3,.34,1.07,1.07,0,0,1-.46.79,16.07,16.07,0,0,0-3.61,6.84,31.22,31.22,0,0,0-1.15,7.7,29.76,29.76,0,0,0,.81,8.59,12.19,12.19,0,0,0,2.13,4.71,0.54,0.54,0,0,1,.19.69,48.51,48.51,0,0,1-8.38-.42,30.8,30.8,0,0,1-7.42-2.3,8.13,8.13,0,0,1-1.91-3.84,26.09,26.09,0,0,1,.17-12.81,29.43,29.43,0,0,1,3.2-8,17.91,17.91,0,0,1,3.34-4A0.93,0.93,0,0,1,79.21,173.26Z" transform="translate(-2.29 -2.9)"/>
<path class="7072d1ee-3f42-4e33-87d5-fada98354a50" d="M107.52,179.2a62,62,0,0,1,7.21,3.24,18.68,18.68,0,0,1,2.82,2.27,3.59,3.59,0,0,0,2.74,1c0.49,2.66.78,5.34,1,8a24.35,24.35,0,0,1-.36,6.26,29.33,29.33,0,0,0-9.23,1.87q-2.11.69-4.19,1.44a1.06,1.06,0,0,1-1.34-.72,14.94,14.94,0,0,1-3.63-9.92,20.53,20.53,0,0,1,.81-6.93c0.77-2.37,1.73-4.64,3.77-6.25A1.59,1.59,0,0,1,107.52,179.2Z" transform="translate(-2.29 -2.9)"/>
<path class="7072d1ee-3f42-4e33-87d5-fada98354a50" d="M133.76,203l-6.13-1.75c-0.38-.11-0.76-0.18-1.14-0.26a37.13,37.13,0,0,0-5.07-1,1.31,1.31,0,0,1-.15-1.2,24.46,24.46,0,0,0,0-6.67,54.7,54.7,0,0,0-.75-5.85,0.47,0.47,0,0,1,.11-0.44c3.51-1.25,6.21-3.81,9.28-5.77a10,10,0,0,1,3.06-1.28,6.87,6.87,0,0,1,2,2.86,23.49,23.49,0,0,1,2,9.41,24.25,24.25,0,0,1-.75,7.57,11,11,0,0,1-1.87,3.79A2.25,2.25,0,0,1,133.76,203Z" transform="translate(-2.29 -2.9)"/>
<path class="7072d1ee-3f42-4e33-87d5-fada98354a50" d="M138.67,177.87a5.13,5.13,0,0,0,2.09-.29,23,23,0,0,0,6.1-1,2,2,0,0,1,.85-0.11,1.79,1.79,0,0,1,1.3.94,17,17,0,0,1,2.79,5.72,31.52,31.52,0,0,1,1.31,10,18.5,18.5,0,0,1-1.32,6.94,6,6,0,0,1-1.89,2.57,13.75,13.75,0,0,0-6.22.76c-0.92.26-1.86,0.48-2.79,0.72-2.22.5-4.27-.34-6.35-0.86a1,1,0,0,1-.3-0.23,1,1,0,0,1,.28-0.55,13.18,13.18,0,0,0,2.38-6.18,28.5,28.5,0,0,0-.54-11.42,14.19,14.19,0,0,0-2.32-5.31,0.86,0.86,0,0,1-.3-0.92,4,4,0,0,1,1.93-.43A28.56,28.56,0,0,1,138.67,177.87Z" transform="translate(-2.29 -2.9)"/>
<path class="7072d1ee-3f42-4e33-87d5-fada98354a50" d="M50.27,194.81c-0.81-.33-1.63-0.66-2.43-1a1.47,1.47,0,0,0-.68-0.15,3.7,3.7,0,0,0-3.87-.1c-0.75.17-1.08-.43-1.47-0.86a16.69,16.69,0,0,1-3.58-6.6,24.26,24.26,0,0,1-1.08-7.31A19.47,19.47,0,0,1,39.41,169a9.21,9.21,0,0,1,2-2.32,41,41,0,0,1,13.53-1.34,27.39,27.39,0,0,1,5.12.71,1.84,1.84,0,0,0,1,.28l1.12,0.51a0.54,0.54,0,0,1-.38.54c-2.46,1.4-3.81,3.7-4.95,6.16a27.45,27.45,0,0,0-2.08,6.85,24.47,24.47,0,0,0,.67,12.6,10.16,10.16,0,0,0,1.27,2.53,1.71,1.71,0,0,1,.41.84c0,0.19-.06.31-0.28,0.2l-5.74-1.48C50.81,195,50.54,194.89,50.27,194.81Z" transform="translate(-2.29 -2.9)"/>
<path class="7072d1ee-3f42-4e33-87d5-fada98354a50" d="M166.49,200.76a37.94,37.94,0,0,1-4.87,2.57,6.93,6.93,0,0,1-1.77.66h-0.17a15.31,15.31,0,0,1-3.3-.17,16.35,16.35,0,0,0-2.68-.51,30.43,30.43,0,0,1-3-.61,0.53,0.53,0,0,1,.14-0.64,14.32,14.32,0,0,0,2.37-7.32,27,27,0,0,0,0-5.43,29.63,29.63,0,0,0-1.57-7.31,14.55,14.55,0,0,0-2.76-5,0.58,0.58,0,0,1-.19-0.77c1.47-.45,2.93-0.92,4.41-1.35s3.1-.91,4.66-1.3a20.54,20.54,0,0,1,4.25-.75,1.48,1.48,0,0,1,.93.54,18.8,18.8,0,0,1,4.87,7.92,27.23,27.23,0,0,1,1.65,10.3,17.26,17.26,0,0,1-2,7.89A3.19,3.19,0,0,1,166.49,200.76Z" transform="translate(-2.29 -2.9)"/>
<path class="7072d1ee-3f42-4e33-87d5-fada98354a50" d="M177.71,167.74a4.83,4.83,0,0,1,3.13,2.2,18.44,18.44,0,0,1,2.93,6.42,30.94,30.94,0,0,1,1.19,8,20.65,20.65,0,0,1-2.5,11,31,31,0,0,1-6.58,2.37,5.18,5.18,0,0,0-.71.3,23.62,23.62,0,0,0-3.25.81,27.42,27.42,0,0,0-4.16,1.29c-0.53-.27-0.12-0.59,0-0.83a15.4,15.4,0,0,0,1.26-3.73,24.39,24.39,0,0,0,.46-6.74,32.8,32.8,0,0,0-1.57-7.63,20.77,20.77,0,0,0-4.62-7.82,0.61,0.61,0,0,1-.27-0.75l1-.32a21.74,21.74,0,0,0,9.29-2.54A24.68,24.68,0,0,1,177.71,167.74Z" transform="translate(-2.29 -2.9)"/>
<path class="011e9c74-7102-4ae6-82d6-323c284c7b95" d="M156.39,203.82c1.11-.11,2.19.25,3.3,0.17A7,7,0,0,1,156.39,203.82Z" transform="translate(-2.29 -2.9)"/>
<path class="7072d1ee-3f42-4e33-87d5-fada98354a50" d="M78.56,173a21.12,21.12,0,0,0-3.42,4.21,29.8,29.8,0,0,0-3.26,8.17,31.71,31.71,0,0,0-.89,8.26,16.52,16.52,0,0,0,2,7.8,1.38,1.38,0,0,1,.09.38c-2.62-1-5.28-1.81-7.95-2.62a1.62,1.62,0,0,0-.39,0,19.3,19.3,0,0,0-3-1.08c-1.16-.45-2.36-0.8-3.54-1.19a7.49,7.49,0,0,1-2.42-3.53,18.8,18.8,0,0,1-1.3-6.38,30,30,0,0,1,.51-7,26.11,26.11,0,0,1,3.89-9.75A9,9,0,0,1,62.93,167c2.64,0.86,5.15,2.06,7.75,3,0.36,0.14.73,0.25,1.1,0.38A53,53,0,0,1,78.56,173Z" transform="translate(-2.29 -2.9)"/>
<text class="a5374616-14c6-4548-a95a-556b3a55f2a4" transform="translate(2.74 162.41)">CPU1</text>
</svg>